<svg id="LinkedIN" xmlns="http://www.w3.org/2000/svg" width="60" height="60" viewBox="0 0 60 60">
  <path id="back" d="M0,30A30,30,0,1,1,30,60,30,30,0,0,1,0,30Z" fill="#0077b5"/>
  <path id="Shape" d="M10.964,30.275s.09-18.51,0-20.427h6.8v2.894a6.75,6.75,0,0,1,6.128-3.374c4.474,0,7.828,2.921,7.828,9.2V30.274h-6.8V19.346c0-2.745-.985-4.618-3.445-4.618a3.721,3.721,0,0,0-3.488,2.482,4.642,4.642,0,0,0-.224,1.657V30.275ZM.4,30.274V9.847H7.2V30.274ZM3.758,7.06A3.54,3.54,0,1,1,3.847,0,3.541,3.541,0,1,1,3.8,7.06Z" transform="translate(14 15)" fill="#fff"/>
</svg>
