<svg id="Twitter" xmlns="http://www.w3.org/2000/svg" width="60" height="60" viewBox="0 0 60 60">
  <path id="back" d="M0,30A30,30,0,1,1,30,60,30,30,0,0,1,0,30Z" fill="#55acee"/>
  <path id="Shape" d="M14.1,6.384l.063,1.038L13.115,7.3A17.066,17.066,0,0,1,3.127,2.38L1.742,1,1.385,2.02a6.114,6.114,0,0,0,1.3,6.271c.839.89.651,1.017-.8.487A2.475,2.475,0,0,0,.9,8.545a7.591,7.591,0,0,0,.755,2.839A6.776,6.776,0,0,0,4.533,14.1l1.028.487L4.344,14.6c-1.175,0-1.217.021-1.091.466a6.344,6.344,0,0,0,3.924,3.474l1.3.445-1.133.678a11.814,11.814,0,0,1-5.624,1.568A6.214,6.214,0,0,0,0,21.4a15.964,15.964,0,0,0,4.05,1.864A17.725,17.725,0,0,0,17.816,21.7a18.422,18.422,0,0,0,6.988-8.22A21.852,21.852,0,0,0,26.23,7.126c0-.975.063-1.1,1.238-2.267a13.834,13.834,0,0,0,1.469-1.631c.21-.4.189-.4-.881-.042-1.784.636-2.035.551-1.154-.4A6.163,6.163,0,0,0,28.329.516c0-.064-.315.042-.671.233a11.707,11.707,0,0,1-1.847.72l-1.133.36-1.028-.7A8.541,8.541,0,0,0,21.866.2a7.169,7.169,0,0,0-3.672.085A6.065,6.065,0,0,0,14.1,6.384Z" transform="translate(15 18)" fill="#fff"/>
</svg>
