<svg id="WhatsApp" xmlns="http://www.w3.org/2000/svg" width="60" height="60" viewBox="0 0 60 60">
  <circle id="Oval" cx="30" cy="30" r="30" fill="#25d366"/>
  <path id="Page_1" data-name="Page 1" d="M0,36v0l2.53-9.242A17.839,17.839,0,1,1,17.989,35.69h-.008A17.87,17.87,0,0,1,9.456,33.52L0,36ZM9.895,30.29h0l.541.321a14.8,14.8,0,0,0,7.546,2.067h.006a14.829,14.829,0,1,0-12.56-6.949l.352.562-1.5,5.471L9.894,30.29Zm12.73-3.871a5.611,5.611,0,0,1-1.725-.262,25.469,25.469,0,0,1-2.541-.94A19.289,19.289,0,0,1,10.823,18.6c-.038-.054-.064-.092-.078-.111l0-.006a8.5,8.5,0,0,1-1.815-4.6A4.913,4.913,0,0,1,10.4,10.251l.087-.094A1.624,1.624,0,0,1,11.673,9.6c.269,0,.58,0,.854.016h.138c.277,0,.572.059.865.764.115.276.279.676.455,1.1l0,.01c.393.957.839,2.042.915,2.2a.827.827,0,0,1,.037.781l-.062.126a2.544,2.544,0,0,1-.383.618c-.076.088-.155.185-.232.279-.149.182-.3.37-.436.5-.215.214-.459.457-.2.91a13.3,13.3,0,0,0,2.479,3.088,11.581,11.581,0,0,0,3.29,2.08c.124.054.221.1.294.132a1.105,1.105,0,0,0,.485.143.617.617,0,0,0,.48-.255c.221-.253,1.109-1.293,1.412-1.748a.615.615,0,0,1,.524-.338,1.478,1.478,0,0,1,.478.115c.408.148,2.605,1.229,3.046,1.45l.245.12a1.425,1.425,0,0,1,.609.4,3.723,3.723,0,0,1-.259,2.12c-.385,1.077-2.192,2-3.009,2.119A7.313,7.313,0,0,1,22.624,26.418Z" transform="translate(13 11)" fill="#fdfdfd"/>
</svg>
