<svg xmlns="http://www.w3.org/2000/svg" width="24" height="27.571" viewBox="0 0 24 27.571">
  <g id="Android" transform="translate(-308 -1440)">
    <g id="android-svgrepo-com" transform="translate(303 1436.073)">
      <path id="Path_1335" data-name="Path 1335" d="M18.731,9.33a1.611,1.611,0,0,0-1.611,1.611v7.3a1.611,1.611,0,1,0,3.223,0v-7.3A1.611,1.611,0,0,0,18.731,9.33Z" transform="translate(8.657 3.859)" fill="#1f295a"/>
      <path id="Path_1336" data-name="Path 1336" d="M6.611,9.33A1.611,1.611,0,0,0,5,10.941v7.3a1.611,1.611,0,1,0,3.223,0v-7.3A1.611,1.611,0,0,0,6.611,9.33Z" transform="translate(0 3.859)" fill="#1f295a"/>
      <path id="Path_1337" data-name="Path 1337" d="M7.56,9.33V20.3a1.834,1.834,0,0,0,1.834,1.834H10.56v3.891a1.611,1.611,0,1,0,3.223,0V22.136H16.56v3.891a1.611,1.611,0,1,0,3.223,0V22.136h1.166A1.834,1.834,0,0,0,22.783,20.3V9.33Z" transform="translate(1.829 3.859)" fill="#1f295a"/>
      <path id="Path_1338" data-name="Path 1338" d="M22.577,10.909A7.08,7.08,0,0,0,19.44,6.864l-.257-.154-.274-.137.309-.531.909-1.714a.24.24,0,0,0-.086-.274h-.12a.291.291,0,0,0-.223.12l-.926,1.594L18.48,6.3l-.274-.12-.291-.1a8.366,8.366,0,0,0-5.486,0l-.274.1-.291.12-.291-.531-.926-1.714a.246.246,0,0,0-.429.24l.909,1.714.309.531-.274.137-.257.154a6.977,6.977,0,0,0-3.12,4.08,5.331,5.331,0,0,0-.223,1.371H22.783A6.173,6.173,0,0,0,22.577,10.909ZM11.743,10a.686.686,0,1,1,.485-.2A.686.686,0,0,1,11.743,10ZM18.6,10a.686.686,0,1,1,.485-.2A.685.685,0,0,1,18.6,10Z" transform="translate(1.829 0)" fill="#1f295a"/>
    </g>
    <g id="Ellipse_3" data-name="Ellipse 3" transform="translate(318 1451)" fill="#58e1f5" stroke="#eef0fb" stroke-width="1">
      <circle cx="2.5" cy="2.5" r="2.5" stroke="none"/>
      <circle cx="2.5" cy="2.5" r="2" fill="none"/>
    </g>
  </g>
</svg>
