<svg xmlns="http://www.w3.org/2000/svg" xmlns:xlink="http://www.w3.org/1999/xlink" width="325.284" height="218.995" viewBox="0 0 325.284 218.995">
  <defs>
    <linearGradient id="linear-gradient" x1="0.954" y1="-0.099" x2="0.51" y2="0.798" gradientUnits="objectBoundingBox">
      <stop offset="0" stop-color="#1f295a"/>
      <stop offset="1" stop-color="#4b5fb8"/>
    </linearGradient>
    <filter id="Union_16" x="0" y="0" width="325.284" height="218.995" filterUnits="userSpaceOnUse">
      <feOffset input="SourceAlpha"/>
      <feGaussianBlur stdDeviation="3" result="blur"/>
      <feFlood flood-opacity="0.161"/>
      <feComposite operator="in" in2="blur"/>
      <feComposite in="SourceGraphic"/>
    </filter>
  </defs>
  <g transform="matrix(1, 0, 0, 1, 0, 0)" filter="url(#Union_16)">
    <path id="Union_16-2" data-name="Union 16" d="M2174.907,169.357a25.168,25.168,0,0,1-13.056-21.3,26.2,26.2,0,0,1-1.281-5.2l-2.577-18.3-14.636,26.24a25.437,25.437,0,0,1-34.469,9.823A25.118,25.118,0,0,1,2099,126.363l52.455-94.051a25.439,25.439,0,0,1,34.47-9.823A25.171,25.171,0,0,1,2199,44.577a26.188,26.188,0,0,1,1.365,5.429l2.442,17.352,14.674-26.309a25.439,25.439,0,0,1,34.47-9.823,25.12,25.12,0,0,1,9.884,34.258l-52.456,94.051a25.436,25.436,0,0,1-34.469,9.824Zm-126.9-16.419a25.12,25.12,0,0,1-9.884-34.258l52.455-94.051a25.438,25.438,0,0,1,34.469-9.824,25.118,25.118,0,0,1,9.884,34.258l-52.455,94.051a25.439,25.439,0,0,1-34.47,9.823ZM1987.134,142.3a25.118,25.118,0,0,1-9.884-34.258l52.455-94.051a25.438,25.438,0,0,1,34.469-9.824,25.119,25.119,0,0,1,9.884,34.259l-52.455,94.05a25.437,25.437,0,0,1-34.469,9.824Z" transform="matrix(0.99, -0.1, 0.1, 0.99, -1954.36, 244.76)" fill="url(#linear-gradient)"/>
  </g>
</svg>
