<?xml version="1.0" encoding="utf-8"?>
<svg width="24px" height="24px" viewBox="0 0 24 24" version="1.1" xmlns:xlink="http://www.w3.org/1999/xlink" xmlns="http://www.w3.org/2000/svg">
  <g id="vuesaxbrokenfolder-open" fill-opacity="1">
    <path d="M0 0L24 0L24 24L0 24L0 0Z" id="vuesaxbrokenfolder-open" fill="none" fill-rule="evenodd" stroke="none" />
    <g id="vuesaxbrokenfolder-open">
      <path d="M21.3707 18.02L21.2707 19.3C21.1207 20.83 21.0007 22 18.2907 22L5.71074 22C3.00074 22 2.88074 20.83 2.73074 19.3L2.33074 14.3C2.25074 13.47 2.51074 12.7 2.98074 12.11C2.99074 12.1 2.99074 12.1 3.00074 12.09C3.55074 11.42 4.38074 11 5.31074 11L18.6907 11C19.6207 11 20.4407 11.42 20.9807 12.07C20.9907 12.08 21.0007 12.09 21.0007 12.1C21.4907 12.69 21.7607 13.46 21.6707 14.3" id="Vector" fill="none" stroke="#E6AC7D" stroke-width="1.5" stroke-linecap="round" stroke-linejoin="round" />
      <path d="M3.5 11.43L3.5 6.28003C3.5 2.88003 4.35 2.03003 7.75 2.03003L9.02 2.03003C10.29 2.03003 10.58 2.41003 11.06 3.05003L12.33 4.75003C12.65 5.17003 12.84 5.43003 13.69 5.43003L16.24 5.43003C19.64 5.43003 20.49 6.28003 20.49 9.68003L20.49 11.47" id="Vector" fill="none" stroke="#E6AC7D" stroke-width="1.5" stroke-linecap="round" stroke-linejoin="round" />
      <path d="M9.42969 17L14.5697 17" id="Vector" fill="none" fill-rule="evenodd" stroke="#E6AC7D" stroke-width="1.5" stroke-linecap="round" stroke-linejoin="round" />
      <path d="M24 0L24 24L0 24L0 0L24 0Z" id="Vector" fill="none" fill-rule="evenodd" stroke="none" />
    </g>
  </g>
</svg>