<svg xmlns="http://www.w3.org/2000/svg" width="225" height="270" viewBox="0 0 225 270">
  <g id="Group_37609" data-name="Group 37609" transform="translate(-1445 -350)">
    <rect id="Rectangle_3248" data-name="Rectangle 3248" width="225" height="270" rx="30" transform="translate(1445 350)" fill="#fff"/>
    <g id="Introduction" transform="translate(1451.699 360)">
      <g id="variations">
        <g id="images">
          <g id="a-person_bust" data-name="a-person/bust" transform="translate(0 0)">
            <g id="body_Macbook" data-name="body/Macbook" transform="translate(0 80.313)">
              <path id="_-Background" data-name="ðŸŽ¨-Background" d="M9.417,44.272l9.05.889c14.448,1.1,28.891,3.411,43.228,4.795a.927.927,0,0,1,1.48-.082c1.431-.125,3.034-1.219,4.33-.081.042-.006.084-.013.127-.017a90.964,90.964,0,0,0,5.451-13.888c.988-2.909,2.317-5.725,4.774-7.679,4.192-2.911,13.8-8.815,18.721-8.567a3.656,3.656,0,0,1,1.167-2.378c-1.487-2.536,4.458-4.191,4.878-3.9-.269-8.473,3.715-15.831,12.5-17.518,7.87-1.641,19.063-1.916,23.3,6.312.465-.052,5.221-.077,5.681-.026.715-.906,8.572,7.683,5.352,10.674,28.79,12.741,45.16,11.22,53.129,47.038,1.077,3.365,1.156,7.047,2.293,10.336,4.047,9.454,7.33,19.521,8.147,29.808,1.973.506,2.2,3.986-.085,4.49a5.344,5.344,0,0,0-2.24.954c.5,8.43-1.54,27.687-2.825,27.628-2.618,8.336-14.3,10.689-22.566,7.759,1.425,2.683,0,4.369,0,5.8-29.752,1.126-62.283.478-92.027,2.022-3.8-.054-7.807.935-11.559.366-2.289-.549-2.292-4.149.029-4.594l-10.144-2.2c.227-.086-4.181-3.019-7.513-8.5-3.1-6.131-.99-13.532-2.4-20.2-10.974-.9-22.13-1.282-32.984-3.141-1.48,4.43-7.886-.868-9.923-3l.008-.01a2.474,2.474,0,0,1-1.8-2.288,3,3,0,0,1-.173-3.335C13.783,84.2,9.152,66.3,7.479,48.6a3.745,3.745,0,0,1-1.621-.79l.038-.038a2.012,2.012,0,0,1,.378-3.192A4.674,4.674,0,0,1,9.417,44.272Z" transform="translate(-4.241 5.072)" fill="#fff" fill-rule="evenodd"/>
              <path id="_-Ink" data-name="ðŸ–-Ink" d="M137.643.25a1.863,1.863,0,0,0-3.589.99A12.868,12.868,0,0,0,135.73,5.4a10.054,10.054,0,0,0,2.094,2.757c-1.563,1.459-3.186,2.865-4.85,4.2a59.592,59.592,0,0,1-5.7,4.033c-1.73,1.082-3.539,2.041-5.17,3.276A10.325,10.325,0,0,0,118.5,24a8.928,8.928,0,0,0,.128,5.819l.063.217c.563,1.9,1.539,4.19.186,5.981a15.494,15.494,0,0,1-2.554,2.285,19.844,19.844,0,0,0-2.15,2.108,17.409,17.409,0,0,0-3.355,5.572l-.066.188c-.634,1.83-1.1,4.072-.241,5.869a.651.651,0,0,0,1.177-.154c.311-1.136.3-2.326.556-3.478a13.117,13.117,0,0,1,1.314-3.412,18.445,18.445,0,0,1,4.518-5.364l.547-.445c1.426-1.171,2.736-2.413,3.026-4.351.31-2.073-.521-4.048-1.054-6.01a6.768,6.768,0,0,1-.091-3.914,25.029,25.029,0,0,0,1.691,2.242c1.056,1.353,2.121,2.7,3.184,4.045,1.09,1.381,2.153,2.785,3.165,4.224q.679.966,1.347,1.94c.336.487.8.974,1.17,1.471a.875.875,0,0,0,.079.79c1.94,2.623,4.7-2.85,5.421-4.233,1.466-2.816,2.557-5.807,4.028-8.622a67.739,67.739,0,0,1,5.195-8.423c1.17-1.612,2.482-3.125,3.552-4.788,2.522,2.288,5.84,3.821,8.889,5.212,3.349,1.528,6.829,2.776,10.262,4.1l1.014.394c5.916,2.31,11.978,4.848,16.9,8.951,5.779,4.822,9.2,11.542,11.743,18.5,2.93,8.011,5.354,16.239,7.613,24.461q1.734,6.31,3.285,12.672c.909,3.735,1.662,7.507,2.714,11.2-2.134-.075-4.567.751-6.389.99a106.345,106.345,0,0,0-24.332,5.821A1.729,1.729,0,0,0,180,107.98c-.558-.158-1.116-.317-1.675-.474.612-.938.32-2.614.272-3.654l0-.071c-.049-1.385-.2-2.771-.3-4.154-.185-2.635-.427-5.251-.748-7.872l-.082-.655c-.364-2.851-.633-5.718-1.03-8.564l-.047-.326c.19-.728.412-1.447.645-2.163.62-1.907,1.495-3.7,2.261-5.55.09-.217-.219-.342-.364-.212a15.333,15.333,0,0,0-3.158,4.2c-.014-.073-.027-.146-.042-.22l-.095-.466a7.981,7.981,0,0,0-1.213-3.251.171.171,0,0,0-.291,0,8.93,8.93,0,0,0-.843,3.84c-.116,1.452-.131,2.922-.11,4.378.04,2.845.24,5.7.4,8.54.157,2.792.464,5.548.861,8.312l.075.518c.194,1.316.353,2.648.608,3.954l.072.356a17.135,17.135,0,0,0,.493,2.321q-10.5-2.93-21.038-5.738Q147.034,99,139.409,97a5.691,5.691,0,0,0-1.019-1.338c-1.373-1.33-3.192-1.923-4.86-.9a.22.22,0,0,0,0,.377c.32.175.64.354.954.541l-3.051-.827c-2.28-.618-4.588-1.391-6.922-1.822a107.261,107.261,0,0,0-13.45-5.176l-.534-.181a51.094,51.094,0,0,0-7.112-2.114c-1.754-.321-3.812.066-4.518,1.864a28.012,28.012,0,0,0-2.543,1.961c-.586.492-1.148,1.014-1.719,1.523L94.531,91a2.156,2.156,0,0,0-.952,1.322c-.059.333.153.784.563.74,1.257-.135,2.28-1.593,3.132-2.463.659-.673,1.323-1.369,1.924-2.108a.746.746,0,0,0,1.054-.266c1.157-2.191,4.326-.673,6.08-.153l2.512.744q1.884.559,3.765,1.128c3.445,1.046,6.872,2.217,10.348,3.178a.723.723,0,0,0,.323,1.182,74.4,74.4,0,0,0,8.532,2.353q2.677.695,5.351,1.4a4.377,4.377,0,0,1,.618,1.708,19.53,19.53,0,0,1-.955,7.487l-.1.346c-.525,1.865-1.3,4.152-2.907,5.33a2.852,2.852,0,0,1-1.4.532q-4.724-2.433-9.45-4.862a.878.878,0,0,0-1.254.589,20.528,20.528,0,0,1-3.229-.813c-1.7-.576-3.021-1.676-4.612-2.436-3.077-1.471-6.22.336-8.975,1.709l-.635.312c-1.236.6-3.806,1.752-4.4.112-.573-1.587,1.24-3.283,2.41-4a15.908,15.908,0,0,1,4.6-1.687c.9-.217,1.812-.394,2.729-.523a17.031,17.031,0,0,0,3.116-.462.57.57,0,0,0,0-1.089,11.528,11.528,0,0,0-4.991.423l-.841.207a20.071,20.071,0,0,0-4.734,1.691,8.575,8.575,0,0,0-2.947,2.528,2.267,2.267,0,0,0-2.276-.356l-.452.126a4.259,4.259,0,0,1-2.079.206c-.1-.529-.2-1.058-.3-1.587q-1.554-7.8-3.425-15.539Q87.435,74.672,83.194,61.62l-.283-.87a31.733,31.733,0,0,0-2.223-5.988,7.075,7.075,0,0,0-4.469-3.253c-2.143-.6-4.394-.912-6.58-1.316-.488-.09-.976-.176-1.465-.264a23.711,23.711,0,0,0,1-2.239l.049-.112c.6-1.359,1.131-2.742,1.648-4.132l.387-1.045a52.043,52.043,0,0,1,3.208-7.348,19.117,19.117,0,0,1,5.5-6.18c4.656-3.419,10.268-5.163,14.784-8.816.185-.15-.052-.406-.24-.311-3.049,1.533-6.341,2.575-9.513,3.823l-.626.247A31.38,31.38,0,0,0,77.142,27.5a20.066,20.066,0,0,0-5.756,6.674,59.321,59.321,0,0,0-3.31,8.328l-.266.744c-.4,1.115-.816,2.227-1.292,3.312a31.433,31.433,0,0,0-1.4,2.829c-.876-.152-1.751-.3-2.628-.451A421.052,421.052,0,0,0,5.064,43.355a1.085,1.085,0,0,0-1.031,1.354C5.879,55.632,7.52,66.592,9.32,77.523q1.179,7.156,2.408,14.3c.416,2.414.9,4.819,1.29,7.236a50.512,50.512,0,0,0,1.094,5.827,11.125,11.125,0,0,0,2.473,4.664,8.852,8.852,0,0,0,5.052,2.409c4.741.816,9.6,1.15,14.384,1.693l25.447,2.9a63.111,63.111,0,0,0-.229,10.131l.1,1.867c.079,1.5.175,3.006.39,4.493a9.068,9.068,0,0,0,2.379,4.837,28.776,28.776,0,0,0,3.917,3.416,19.733,19.733,0,0,0,4.54,2.805l.216.086c1.459.57,4.2,1.452,6.191,1.13-.261,1.307-.765,2.712-.318,4a.891.891,0,0,0,1.473.389c.953-1.013,1.027-2.35,1.253-3.671.235-1.375.437-2.754.617-4.137.348-2.674.618-5.372.7-8.069q.127-4.154-.1-8.308c-.077-1.42-.172-2.84-.352-4.252-.077-.6-.155-1.2-.245-1.8q-.049-.328-.108-.654l2.284.258c3.5.391,7.006.744,10.533.8a1.136,1.136,0,0,0,.949-.461,1.306,1.306,0,0,0,1.171.623c4.925-.018,9.512-1.63,13.992-3.528,2.258-.957,4.481-1.994,6.742-2.943,2.111-.886,4.367-1.518,6.427-2.516l5.413,2.84a2.346,2.346,0,0,0,.145.382,3.139,3.139,0,0,0,1.757,1.4,4.229,4.229,0,0,0,2.074.3q6.157,3.228,12.32,6.447l4.11,2.143c8.188,4.265,16.343,8.6,24.583,12.764l.607.305a73.492,73.492,0,0,0,9.06,3.955,16.045,16.045,0,0,1-.046,2.424l-.016.184c-.094,1-.3,2.254.506,2.966a.932.932,0,0,0,1.446-.187c.515-1.013.053-2.609-.11-3.709a10.6,10.6,0,0,0-.233-1.184,24.635,24.635,0,0,0,11.036,1c3.587-.589,6.366-2.85,8.606-5.615a25.557,25.557,0,0,0,4.945-9.965,51.394,51.394,0,0,0,1.069-12.682,117.2,117.2,0,0,0-.743-13.566,6.544,6.544,0,0,1,1.88-.222,1.461,1.461,0,0,0,1.416.623c1.15,1.269-1.767,2.565-2.7,2.89-.324.113-.289.639.084.623l.235-.011c1.44-.077,2.928-.323,3.775-1.662a2.61,2.61,0,0,0-.334-3.22,115.811,115.811,0,0,0-3-14.905c-1.167-4.839-2.464-9.647-3.839-14.43l-.616-2.141A210.288,210.288,0,0,0,200,46.531a47.609,47.609,0,0,0-5.538-10.262,35.257,35.257,0,0,0-7.68-7.561c-5.492-3.983-11.936-6.39-18.268-8.683l-.283-.1c-3.281-1.187-6.554-2.389-9.8-3.675-2.869-1.138-5.617-2.58-8.472-3.735q.139-.253.269-.511l.053.044.028.021a.793.793,0,0,0,.946-.122c.668-.631.442-1.331,0-1.985l-.058-.083c-.545-.764-1.032-1.573-1.535-2.365l-.315-.5a20.473,20.473,0,0,0-2.86-3.749,6.146,6.146,0,0,0-1.7-1.169c.052-.109-.4-.333-.531-.221a14.452,14.452,0,0,0-6.215-.361M62.7,116.692l2.666.3q4.4.5,8.8.976l6.374.693c.016.364.06.719.068.994.042,1.415.073,2.831.1,4.247q.088,4.257-.192,8.511c-.181,2.745-.419,5.49-.79,8.216l-.076.545-.044.287a1.245,1.245,0,0,0-.846.468c-.539.644-2.491.018-3.254-.253a15.51,15.51,0,0,1-3.524-1.957,22.549,22.549,0,0,1-2.943-2.506l-.753-.745a9.642,9.642,0,0,1-1.959-2.475,13.7,13.7,0,0,1-.886-4.214c-.225-1.7-.492-3.4-.775-5.1M140.1,98.824l.277.073c10.046,2.67,20.077,5.42,30.154,7.972,4.987,1.263,10,2.435,14.99,3.674l.808.2c3.939,1,7.925,2.195,10.941,5.053a.119.119,0,0,0,.168-.168c-3.251-3.462-7.874-4.927-12.313-6.2-.821-.235-1.642-.464-2.463-.7a144.713,144.713,0,0,1,18.444-5.362c1.616-.344,3.25-.6,4.864-.942,1.126-.241,2.225-.589,3.339-.878l.876-.22.012,2.77c.015,3.924.008,7.844-.192,11.767l-.038.727c-.233,4.366-.6,8.823-2.147,12.939a23.58,23.58,0,0,1-5.888,8.933,10.644,10.644,0,0,1-4.519,2.666,15.323,15.323,0,0,1-5.038.374c-8.077-.564-15.266-4.953-22.282-8.587q-17.213-8.916-34.439-17.806a5.636,5.636,0,0,0,.869-.732,12.845,12.845,0,0,0,2.887-5.88,31.024,31.024,0,0,0,.947-6.971M125.482,117.41a.15.15,0,0,0-.224.128,5.9,5.9,0,0,0,.812,2.534l.038.084c.44.979.922,1.946,1.42,2.9q1.494,2.85,3.112,5.634a66.7,66.7,0,0,0,7.441,10.546c.645.733,1.7-.207,1.291-1a117.932,117.932,0,0,0-6.713-10.963q-1.8-2.676-3.605-5.345c-.5-.741-1.016-1.479-1.541-2.206l-.317-.435M6.336,45.535q15.122.457,30.183,1.993,14,1.438,27.872,3.825,2.9.5,5.785,1.037l1.155.217c1.926.365,4.28.516,5.995,1.545,1.808,1.085,2.3,3.353,2.9,5.224q1.061,3.3,2.067,6.617,4,13.17,7.267,26.551c1.077,4.425,2.033,8.875,3.041,13.316.895,3.946,1.882,7.847,2.914,11.754a1.147,1.147,0,0,0-.471-.214c-5.123-1.09-10.352-1.564-15.551-2.167l-.5-.059q-8.068-.949-16.139-1.866L27.218,109.3a41.812,41.812,0,0,1-6.4-.833c-3.477-.96-4.292-4.848-4.875-7.945l-.018-.094c-1.759-9.357-3.159-18.8-4.8-28.176m83.558,34.485c1.383-.091,3.277-1.359,4.326-1.268a3.87,3.87,0,0,0-.482,3.106c.884,3.135,4.88,1.513,6.805.555a20.8,20.8,0,0,1,4.85-2.115c1.98-.416,3.321.371,4.993,1.279a14.768,14.768,0,0,0,4.408,1.558,9.286,9.286,0,0,0,2.371.106.95.95,0,0,0,.159.1l.41.215a22.955,22.955,0,0,0-5.471,1.182c-1.789.543-3.545,1.2-5.292,1.867l-1.719.661c-4.239,1.624-8.627,3.166-13.215,3.153a1.382,1.382,0,0,0-.813.239m6.409-20.466a4.677,4.677,0,0,0-3.72.9c-1.317,1.073-2.2,2.853-4.1,2.97a.5.5,0,0,0-.132.973c1.409.417,2.55-.345,3.511-1.336l.646-.675a4.2,4.2,0,0,1,3.434-1.684c1.724.063,3.452.462,5.165.664q2.911.344,5.828.594c.09.008.106-.135.021-.156l-2.181-.543m-7.157-7.3-.225-.023a8.531,8.531,0,0,0-5.572.868l-.34.206a12.93,12.93,0,0,0-4.337,3.69.341.341,0,0,0,.38.495c1.921-.461,3.325-1.871,4.94-2.926,1.813-1.184,3.685-.989,5.752-.8,2,.178,4,.423,5.983.757,1.862.313,3.73.808,5.61.965v0c.215,0,.337-.323.118-.433a25.691,25.691,0,0,0-6.2-1.84M43.456,71.7A.8.8,0,0,0,42,71.088l-.111.154c-1.13,1.549-2.764,3.492-2.681,5.462a2.746,2.746,0,0,0-2.41,1.522,3.008,3.008,0,0,0-.2,1.415,4.2,4.2,0,0,0-2.44,1.241,2.8,2.8,0,0,0-.331,3.428c1.431,2.438,4.558,3.325,7.2,3.523l.094.007c2.726.189,6.655.138,8.524-2.2,1.8-2.257-.19-4.084-2.233-5.077a1.755,1.755,0,0,0,.548-1.918c-.455-1.292-2.061-1.791-2.968-2.688a4.737,4.737,0,0,1-1.546-4.166m-1.481,1.9a6.813,6.813,0,0,0,2.068,3.45,8.058,8.058,0,0,0,1.281.962l.055.032c.406.228,1.4.655,1.326,1.166s-1.7,1.348-2.147,1.348c-.1,0-.158.157-.055.2a2.544,2.544,0,0,0,2.288.132c.524.536,1.034,1.09,1.538,1.639.892.972.587,2-.467,2.722-1.694,1.163-4.269,1.135-6.245,1.05a9.269,9.269,0,0,1-5.67-1.854l-.068-.059c-.845-.751-1.616-2.025-.323-2.748a6.27,6.27,0,0,1,1.534-.4,2.988,2.988,0,0,0,2.071,1.725.688.688,0,0,0,.561-1.228l-.147-.091a2.859,2.859,0,0,1-1.505-2.387c.013-.731,1.033-1.654,1.7-.967l.03.033c.556.627,1.536-.163,1.17-.858l-.018-.032M171.7,37.34a.16.16,0,0,0-.3-.08,33.269,33.269,0,0,0-2.654,7.562c-.72,2.623-1.3,5.272-1.825,7.941a87.327,87.327,0,0,0-1.66,16.286c-.005.786,1.275,1,1.4.19.832-5.358,1.629-10.721,2.467-16.078.422-2.694.912-5.378,1.382-8.064m-11.6-3.8c.1-.313-.361-.418-.477-.132a33.193,33.193,0,0,0-1.805,20.289c.255,1.027,1.758.582,1.566-.432m-32.71-25.38c.013-.235-.291-.272-.406-.11-1.228,1.731-1.737,4.049-3.892,4.943-1.076.447-2.286.369-3.236,1.123a1.583,1.583,0,0,0-.646,2.065.509.509,0,0,0,.793.1,4.816,4.816,0,0,1,.88-1.152,6.531,6.531,0,0,1,2.04-.633,4.987,4.987,0,0,0,2.254-1.343m-18.3-33.862a.248.248,0,0,0-.329.086.271.271,0,0,0,.04.415,9.885,9.885,0,0,0-.444,1.5q-.194.857-.411,1.707c-.29,1.145-.545,2.3-.835,3.444-.308,1.214-.675,2.415-1.083,3.6-.026.077-.055.155-.086.234l-.047.12-.011-.018a.129.129,0,0,0-.235.1c.019.126.045.252.066.379l-.043.113a2.1,2.1,0,0,0,.04,2.111,1,1,0,0,0,.637.42,36.713,36.713,0,0,0,1.45,3.887l.159.366a21.788,21.788,0,0,0,2.914,5.189c1.385,1.7,3.289,2.86,4.5,4.722a11.462,11.462,0,0,1,1.268,2.755l.119.371a2.972,2.972,0,0,0,1.133,1.768.572.572,0,0,0,.684-.088c1.33-1.408-.062-4.037-.865-5.4a19.373,19.373,0,0,0-4.345-4.538,19.159,19.159,0,0,1-3.928-5.635c-.658-1.244-1.294-2.516-1.963-3.766a5.655,5.655,0,0,0,1.16-2.7l.022-.077a30.554,30.554,0,0,0,.9-4.177,22.972,22.972,0,0,0,.218-4.05l-.014-.347m-3.265,3.957c.154-.212-.1-.452-.313-.407a14.338,14.338,0,0,0-3.7,1.677l-.123.067A5.19,5.19,0,0,0,95.9,16.634a6.588,6.588,0,0,0-.412,3.4l.007.107a28.4,28.4,0,0,0,.392,4.139.969.969,0,0,0,1.3.72c.634,2,2.416,3.479,3.717,5.06,1.659,2.015,1.347,4.737,1.174,7.164-.07.983,1.152,1.262,1.781.738l1.45-1.205q.362-.3.723-.605.309-.26.613-.525l.3-.267c.134-.12.726-.781.9-.809.419-.067,1.415,1.038,1.756,1.385l.043.043a17.8,17.8,0,0,1,1.761,2.024.129.129,0,0,0,.222-.13,18.223,18.223,0,0,0-1.714-2.955l-.135-.185c-.444-.6-1.041-1.657-1.825-1.833-.958-.216-1.914.745-2.61,1.278l-.044.033c-.331.249-.659.5-.986.757a9.611,9.611,0,0,0-1.127-5.191,19.846,19.846,0,0,0-2.486-2.856c-.939-1.051-1.429-2.343-2.279-3.437a.642.642,0,0,0-.424-.241c-.033-.88-.162-1.769-.262-2.639l-.029-.261a5.368,5.368,0,0,1,.123-2.987,7.278,7.278,0,0,1,2.183-1.995l.607-.471M144.192,3.221a4.723,4.723,0,0,1,1.079.853,17.977,17.977,0,0,1,2.5,3.782c.388.708.762,1.425,1.153,2.131.17.308.345.612.522.915.082.14.325.418.445.589-.134.188-.272.372-.413.555-.054.07-3.768,4.117-5.063,5.7a51.789,51.789,0,0,0-5.27,7.733c-1.484,2.686-2.613,5.531-3.987,8.269a20.643,20.643,0,0,1-2.435,3.919c-.038.046-.078.09-.116.136a11.961,11.961,0,0,0-1.8-2.712l-.044-.059c-1.067-1.438-2.193-2.834-3.344-4.205q-1.577-1.878-3.233-3.683l-.415-.451a12.37,12.37,0,0,0-2.872-2.669,5.4,5.4,0,0,1,.421-.638,14.315,14.315,0,0,1,4.018-3.283l.954-.581a65.659,65.659,0,0,0,10.262-7.337,41.575,41.575,0,0,0,4.671-4.846l.491-.622m-3.52-4.584a20.708,20.708,0,0,1,5.061.657c-1.384,1.309-2.7,2.722-4.051,4.053-.12-.9-.366-1.789-.574-2.667" transform="translate(-4.014 5.072)" fill-rule="evenodd"/>
            </g>
            <g id="head_Short-5" data-name="head/Short-5" transform="translate(78.726 0)">
              <path id="_-Background-2" data-name="ðŸŽ¨-Background" d="M47.747,15.906c-12,0-24.4,9.3-28.8,15.238-3.7,4.991-5.688,27.558-5.688,42.809,0,3.19-1.76,9.2-1.246,12.253,1.882,11.18,10.079,20.557,26.3,20.557s27.858-6.434,39.918-23.708c5.851,0,8.687-4.489,8.729-11.573Q87,64.4,81.315,61.82q2.029-27.957-3.08-35.236C73.126,19.305,59.743,15.906,47.747,15.906Z" transform="translate(-9.527 -11.624)" fill="#fff" fill-rule="evenodd"/>
              <path id="_-Ink-2" data-name="ðŸ–-Ink" d="M53.831,11.953a80.549,80.549,0,0,0-22.46,1.211,1.227,1.227,0,0,0-1.014.928c-3.516.161-7.035.419-10.546.611A1.661,1.661,0,0,0,18.4,17.169c.116.226.237.446.359.666l-.154-.051a4.12,4.12,0,0,0-3.226.032A3.229,3.229,0,0,0,13.84,21.4a5.5,5.5,0,0,0,.34,1.027,4.378,4.378,0,0,0-.864.025,3.086,3.086,0,0,0-2.746,2.938c-.118,2.358,1.4,4.751,3.19,6.44a2.989,2.989,0,0,0-.251,1.8,3.46,3.46,0,0,0,2.222,2.51,11.58,11.58,0,0,0-.536,4.443,1.23,1.23,0,0,0,.956,1.032,69.8,69.8,0,0,0-3.274,15.043,91.593,91.593,0,0,0-.705,10.815q-.02,2.449.082,4.9l.028.612a41.417,41.417,0,0,0,.406,5.364,15.021,15.021,0,0,0-1.7,6.188,19.05,19.05,0,0,0,.938,7.615c3.038,9.177,12.207,14.968,21.416,16.473,8.524,1.393,18.389-.482,23.37-8.228.078-.123-.089-.224-.186-.144-3.564,2.9-7.7,4.193-12.19,4.823-7.766,1.087-16.5-.757-22.728-5.643A17.721,17.721,0,0,1,15.509,90a16.648,16.648,0,0,1-.46-5.772c.194-1.961,1.062-3.635,1.61-5.489a1.656,1.656,0,0,0-.393-1.621c-.108-1.505-.361-3.023-.458-4.523q-.162-2.559-.2-5.119c-.044-3.542.1-7.091.4-10.618C16.557,50.4,18,44.1,18.854,37.7a1.052,1.052,0,0,0,1.238.151l.049-.027.258-.148a.39.39,0,0,1,.047,0,13.563,13.563,0,0,0,5.284-.6A15.541,15.541,0,0,0,30.6,34.555a22.235,22.235,0,0,1,.4,4.284,1.151,1.151,0,0,0,1.711.983,71.372,71.372,0,0,0,9.6-5.873q.533,2.73,1.067,5.461a1.1,1.1,0,0,0,1.6.651,20.324,20.324,0,0,0,5.846-5.123q.48.917.963,1.833l.486.914a3.933,3.933,0,0,0,2.172,2.179,2.021,2.021,0,0,0,2.413-1.422c.114-.313.22-.634.317-.957A55.677,55.677,0,0,0,60.4,43.776a83.08,83.08,0,0,0,6.158,8.483c.659.839,1.787.038,1.878-.778.053-.48.1-.962.135-1.442,1.264,2.552,2.583,5.081,4.021,7.536l-.206.807h0c-.593,2.384-1.085,4.784-1.621,7.18a1.657,1.657,0,0,0,1.141,2.01c1.079.157,2.1.709,3.2.329,1.2-.414,1.443-1.456,2.012-2.443a3.989,3.989,0,0,1,.387-.549l.036.047h0c.089.116.3-.01.247-.144l-.062-.154h0a21.222,21.222,0,0,1,1.611-1.417,5.738,5.738,0,0,1,3.6.54,6.8,6.8,0,0,1,2.945,5.865,15.433,15.433,0,0,1-2.163,7.82,5.461,5.461,0,0,1-2.527,2.316c-1.086.435-2.263.3-3.368.71a1.257,1.257,0,0,0-.739,1.82c.03.051.063.1.1.146l-.329.436c-.226.3-.462.626-.681.963-.562.647-1.154,1.27-1.726,1.907-1.058,1.173-2.085,2.378-3.127,3.567-.983,1.122-2.022,2.177-3.093,3.215-1.012.983-2.275,1.809-3.2,2.858-.9,1.023-1.149,2.809.338,3.4,1.646.657,3.1-.882,4.21-1.908l.047-.043A30.675,30.675,0,0,0,74.936,90.5a4.554,4.554,0,0,0,4.965.094,4.35,4.35,0,0,0,1.618-2.33,3.39,3.39,0,0,0,.79.09c.133.077.267.153.4.223a1.986,1.986,0,0,0,2.877-.877,4.608,4.608,0,0,0-.416-3.336l-.083-.214A18.711,18.711,0,0,0,84.3,82.3a10.017,10.017,0,0,0,2.244-2.395,17.746,17.746,0,0,0,2.7-11.4,9.848,9.848,0,0,0-3.061-6.083l.063-.165h0a24.7,24.7,0,0,0,1.208-3.758,38.832,38.832,0,0,0,.644-4.635,44.526,44.526,0,0,0-.188-9.851A38.859,38.859,0,0,0,81.632,26.8a4.734,4.734,0,0,0,1.376-4.216,3.152,3.152,0,0,0-1.264-1.871c-.357-.234-.782-.27-1.139-.465l-.107-.059c-.157-.092-.037-.082.057-.507.37-1.7.063-3.341-1.806-3.906-1.76-.53-3.425.6-4.466,1.938-2.725-1.934-6.317-2.946-9.475-3.806A68.284,68.284,0,0,0,53.831,11.953Zm29.438,57a2.119,2.119,0,0,0-2.59-2.012,5.227,5.227,0,0,0-2.269,1.2l-.331.262a8.117,8.117,0,0,0-2.269,2.269c-.723,1.357.8,3.183,2.231,2.232a8.889,8.889,0,0,0,2.247-2.683l.066-.1a5.969,5.969,0,0,1,.947-1.253l.086-.076a1.2,1.2,0,0,1,.442-.263.963.963,0,0,1,1.077.427l.013.04A.179.179,0,0,0,83.269,68.954Z" transform="translate(-10.563 -11.624)" fill-rule="evenodd"/>
            </g>
            <g id="face_Driven" data-name="face/Driven" transform="translate(82.108 41.425)">
              <path id="_-Ink-3" data-name="ðŸ–-Ink" d="M23.253,48.8a6.981,6.981,0,0,0,4.608.217,6.505,6.505,0,0,0,3.478-2.768,4.739,4.739,0,0,0,.572-3.86.2.2,0,0,0-.144-.123,4.786,4.786,0,0,0-.748.909,7.85,7.85,0,0,1-1.177,1.446,5.449,5.449,0,0,1-2.57,1.315,4.087,4.087,0,0,1-2.666-.418,6.666,6.666,0,0,1-1.3-.978,4.536,4.536,0,0,0-1.457-1,1.44,1.44,0,0,0-1.367.267,1.667,1.667,0,0,0-.7,1.329,3.093,3.093,0,0,0,.886,2.023A7.047,7.047,0,0,0,23.253,48.8Zm1.7-19.983c-1.6.97-4.026,3.232-2.31,5.637,2.02,2.121,4.929-.311,6.362-1.41,1.329-.852,2.822,1.34,1.589,2.335-10.357,7.671-14.56-6.308-6.448-7.7C25.042,27.527,25.373,28.521,24.955,28.821ZM41.736,15.38c-2.174-.1-4.091.873-6.163,1.317a11.67,11.67,0,0,1-5.664-.358c-3.022-.847-4.272,3.781-1.291,4.683a15.17,15.17,0,0,0,6.685.364c1.979-.3,3.638-1.265,5.525-1.826a13.016,13.016,0,0,1,5.234-.055l.664.089c.987.133,1.979.266,2.955.459a17.09,17.09,0,0,0,2.559.51.139.139,0,0,0,.12-.209,12.135,12.135,0,0,0-4.483-3.2l-.1-.049A16.283,16.283,0,0,0,41.736,15.38Zm.8,10.178V25.51c0-1.348-.788-4.425-2.727-4.425-1.212,0-1.947,2.094-2.075,4.253l0,.088c-.056,1.342.312,4.276,2.079,4.276,1.786,0,2.708-2.779,2.727-4.145Zm-28.554,0V25.51c0-1.348.788-4.425,2.727-4.425,1.181,0,1.91,1.991,2.064,4.091l.011.162c.076,1.3-.268,4.364-2.075,4.364-1.786,0-2.708-2.779-2.727-4.145Zm.03-11.819-.139,0a5.457,5.457,0,0,0-5.2,3.678.12.12,0,0,0,.2.116c1.864-1.745,4.37-.078,6.236.8l.685.317c2.406,1.12,5.142,2.436,7.813,1.6A2.456,2.456,0,0,0,22.351,15.5l-.056.02a4.875,4.875,0,0,1-3.246-.385l-.844-.317a11.65,11.65,0,0,0-4.2-1.078Z" transform="translate(-8.662 -13.738)" fill-rule="evenodd"/>
            </g>
          </g>
        </g>
      </g>
    </g>
  </g>
</svg>
