<svg xmlns="http://www.w3.org/2000/svg" xmlns:xlink="http://www.w3.org/1999/xlink" width="369" height="223" viewBox="0 0 369 223">
  <defs>
    <clipPath id="clip-path">
      <rect id="Rectangle_3249" data-name="Rectangle 3249" width="369" height="223" rx="30" fill="#fff"/>
    </clipPath>
  </defs>
  <g id="Group_37610" data-name="Group 37610" transform="translate(-1197 -641)">
    <rect id="Rectangle_3246" data-name="Rectangle 3246" width="369" height="223" rx="30" transform="translate(1197 641)" fill="#fff"/>
    <g id="Mask_Group_1" data-name="Mask Group 1" transform="translate(1197 641)" clip-path="url(#clip-path)">
      <g id="Introduction" transform="translate(104.066 0)">
        <g id="variations">
          <g id="images">
            <g id="a-person_bust" data-name="a-person/bust" transform="translate(0)">
              <g id="body_Hoodie" data-name="body/Hoodie" transform="translate(0 70.692)">
                <path id="_-Background" data-name="ðŸŽ¨-Background" d="M5.022,141.661c-3.824-.185-2.286-6.876-2.011-9.333,3.027-8.975,2.316-18.768,3.506-28.175.742-8.782,1.695-17.537,2.5-26.312C10.588,60.027,21.9,23.764,34.8,17.932c1.625-7.135,8.339-13.8,16.833-13.8C57.425-2.723,64.4-7.551,73.342-6.576c3.7.168,7.28,4.09,10.822,4.847,1.983.274,19.581-.431,23.106,1.664,2.455,1.261,4.672,3.592,3.95,6.559-1.152,3.595,2.428-.295,9.9,3.542,15.228,9.149,6.128,21.389,5.725,21.768,9.5,13.227,17.809,23.957,21.652,40.124,2.491,12,2.21,24.393,4.3,36.458a106.838,106.838,0,0,0,3.09,12.286c1.326,5.316,1.97,18.567,2.7,18.685,1.331.331-.769,3.065-2.18,3.067-39.1,6.489-78.82.269-118.132-.747C27.191,141.291,16.1,141.2,5.022,141.661Z" transform="translate(-0.217 6.702)" fill="#fff" fill-rule="evenodd"/>
                <path id="_-Ink" data-name="ðŸ–-Ink" d="M64.466,32.972a.139.139,0,0,0-.278,0l-.276,2.666c-.336,3.256-.659,6.506-.894,9.777q-.438,6.119-.582,12.246c-.328,14.239-.394,28.486-.421,42.728q-2.888-.2-5.778-.386-1.961-.127-3.922-.245l-3.333-.2h0l-1.372-.084c-.927-.057-1.981-.291-2.629.531a.977.977,0,0,0-.148,1.147c.558.9,1.415.869,2.385.908l2.745.108c1.961.076,3.921.148,5.882.2q3.087.087,6.173.14c.021,6.013.269,12.018.538,18.024l.122,2.7c.329,7.309.683,14.624,1.186,21.924a.464.464,0,0,0,.927,0c.566-8.22.94-16.458,1.31-24.689q.4-8.952.5-17.908c.272,0,.544.006.816.007,7.722.034,15.442.067,23.164-.005a.2.2,0,0,0-.034.051,11.538,11.538,0,0,0-.6,4.42,21.751,21.751,0,0,0,.608,4.808c1.34,5.659,4.8,10.727,8.731,14.917l.129.136a12.685,12.685,0,0,1,2.563,3.217,19.768,19.768,0,0,1,1.072,4.141l.034.158,1.123,5.191c.357,1.649.458,4.054,1.763,5.243a2.067,2.067,0,0,0,3.4-.9c.447-1.115,0-2.34-.263-3.455l-2.076-8.729a15.293,15.293,0,0,0-1.45-4.135A12.9,12.9,0,0,0,102.6,124.4a36.995,36.995,0,0,1-5.755-6.226,31.774,31.774,0,0,1-4.068-7.434,26.8,26.8,0,0,1-1.186-4.082c-.267-1.315-.265-2.676-.551-3.976a.254.254,0,0,0-.182-.179.1.1,0,0,0-.092-.142l-6.315-.406c-5.614-.362-11.227-.734-16.836-1.158l-.991-.072h0c.077-7.966.012-15.934-.132-23.9-.132-7.308-.135-14.617-.352-21.924-.108-3.626-.341-7.244-.6-10.863C65.272,40.331,64.847,36.662,64.466,32.972Zm59.3,42.371a.373.373,0,0,0-.678-.286,31.563,31.563,0,0,0-4.532,13.808,80.6,80.6,0,0,0-.1,13.213c.256,4.683.556,9.365.858,14.046l.465,7.178h0l1.166,17.994c.084,1.287.376,2.458,1.483,3.056a2.659,2.659,0,0,0,.457.313,1.294,1.294,0,0,0,1.738-.456l-.139.091q-.181.114.407-.319l.333-.431h0a2.706,2.706,0,0,0,.459-1.154,10.363,10.363,0,0,0-.072-2.084l-.765-11.8h0c-.595-9.173-1.289-18.343-1.812-27.521-.244-4.277-.415-8.559-.3-12.844A94.055,94.055,0,0,1,123.763,75.343ZM100.5-3.645l-.149-.025C95.009-4.557,89.2-4.391,84.32-1.816a.047.047,0,0,0,.023.086l1.571-.063c4.974-.195,9.933-.31,14.823.859l.5.121a12.338,12.338,0,0,1,5.015,2.12,10.642,10.642,0,0,1,2.673,4.408l.087.208a8.609,8.609,0,0,0,2.928,4.016c1.865,1.263,4.108,1.109,6.246,1.28,3.765.3,6.843,3.032,8.374,6.372a17.116,17.116,0,0,1,1.4,6.5,20.479,20.479,0,0,1-.1,3.415c-.048.358-.49,1.661-.715,1.629a1.027,1.027,0,0,0-1.115.592q-1.856-1.793-3.823-3.476a73.469,73.469,0,0,0-10.515-7.49,68.324,68.324,0,0,0-8.921-4.543,1.47,1.47,0,0,1,.721.165.1.1,0,0,0,.123-.16,3.259,3.259,0,0,0-3.321-.9q-.377-.12-.755-.231a.112.112,0,0,0-.086.2l.289.185h0A15.817,15.817,0,0,0,96.2,15.429a72.132,72.132,0,0,0-7.953,6.563l-.465.417a54.433,54.433,0,0,1-7.123,5.582A25.564,25.564,0,0,1,76.432,30.2c-1.266.5-3.328.813-3.921,2.152a1.268,1.268,0,0,0,.31,1.889c1.041,1.146,3.124.406,4.364-.072a29.388,29.388,0,0,0,4.326-2.079,46,46,0,0,0,7.461-5.618c2.407-2.177,4.677-4.489,7.017-6.733C97,18.765,98,17.77,99.011,16.8l.51-.483a12.141,12.141,0,0,1,2.047-1.7c1.488.888,3,1.739,4.473,2.65,2.058,1.271,4.055,2.634,6.022,4.042a92.086,92.086,0,0,1,10.7,9,108.952,108.952,0,0,1,15.859,19.993l.345.55A74.683,74.683,0,0,1,145.729,63.8a59.559,59.559,0,0,1,3.337,15.63c.5,5.291.668,10.609,1.227,15.9a122.566,122.566,0,0,0,2.985,16.016l.306,1.255a124.136,124.136,0,0,1,2.958,14.33,56.627,56.627,0,0,1,.467,7.831,70.455,70.455,0,0,1-.789,7.8,1.967,1.967,0,0,0,1.729,1.959,2.005,2.005,0,0,0,2.188-1.429,28.419,28.419,0,0,0,1.124-9.216,54.62,54.62,0,0,0-.987-9.264c-1.1-6.017-2.795-11.909-4.213-17.854a106.518,106.518,0,0,1-2.542-15.857c-.47-5.569-.751-11.157-1.607-16.686a55.288,55.288,0,0,0-4.835-15.649,97.451,97.451,0,0,0-7.762-12.931,107.64,107.64,0,0,0-11.53-14.15,2.35,2.35,0,0,0,1.135-.365,4.429,4.429,0,0,0,1.774-3.264,22.929,22.929,0,0,0-.459-8.689,14.572,14.572,0,0,0-8.773-10.2,11.308,11.308,0,0,0-3.605-.6,12.428,12.428,0,0,1-3.549-.246c-1.783-.586-2.548-2.687-3.217-4.28l-.031-.073a10.678,10.678,0,0,0-3.748-5.036,17.185,17.185,0,0,0-6.81-2.364ZM49.749,4.381c-1.605-.557-3.612-.051-5.181.435a13.666,13.666,0,0,0-4.75,2.727,14.339,14.339,0,0,0-3.523,4.521l-.082.166c-.779,1.6-1.667,3.8-1.274,5.557q.017.075.039.144a33.686,33.686,0,0,0-8.687,6.022,47.846,47.846,0,0,0-7.644,9.761C10.16,47.87,8.667,64.868,7.664,81.01L7.414,85.1a210.127,210.127,0,0,1-2.836,26.37l-.121.629c-1.769,9.125-4.3,18.321-4.044,27.682a2.172,2.172,0,0,0,4.341,0c.452-10.485,2.9-20.609,4.555-30.93C12.223,90.694,10.763,71.974,14.892,54a74.4,74.4,0,0,1,7.715-20.2,52.279,52.279,0,0,1,6.17-8.8,56.212,56.212,0,0,1,6.55-6.473,1.711,1.711,0,0,0,2.684-.739,20.225,20.225,0,0,0,.369-2.462,12.224,12.224,0,0,1,.687-2.182,14.393,14.393,0,0,1,2.482-3.868A15.942,15.942,0,0,1,45.3,6.2a31.65,31.65,0,0,1,4.45-1.712A.056.056,0,0,0,49.749,4.381Zm-6.236,97.048a.085.085,0,0,0-.143-.059,9.4,9.4,0,0,0-1.317,1.9q-.716,1.1-1.505,2.156c-1.054,1.4-2.227,2.728-3.409,4.025a48.662,48.662,0,0,1-3.488,3.451c-1.317,1.18-2.794,2.233-3.99,3.54-2.5,2.727-2.9,6.469-3.428,9.983l-.058.38q-.482,3.128-.869,6.27c-.126,1.019-.252,2.038-.355,3.059l-.031.324a4.334,4.334,0,0,0,.457,2.887,1.83,1.83,0,0,0,2.841.366c1.427-1.539,1.159-4.274,1.345-6.254q.23-2.456.522-4.906l.1-.816a53.633,53.633,0,0,1,.841-5.578,7.849,7.849,0,0,1,2.259-3.986c1.18-1.173,2.405-2.268,3.494-3.532a34.927,34.927,0,0,0,3.135-4.276,28.762,28.762,0,0,0,2.036-4.073l.1-.232C42.618,104.7,43.558,102.927,43.513,101.429Zm-20.6-58.4a.148.148,0,0,0-.3,0q-.053,2.447-.1,4.893c-.272,13.143-.1,26.318-1.423,39.416A161.627,161.627,0,0,1,18,105.658c-.678,3.1-1.389,6.194-2.065,9.3-.658,3.022-1.365,6.059-1.887,9.11a89.921,89.921,0,0,0-1.179,9.056l-.025.4c-.089,1.471-.513,3.634.3,4.938a2,2,0,0,0,3.5.089c.883-1.266.663-3.518.819-5.028.158-1.539.326-3.078.516-4.613.371-2.994.861-5.982,1.37-8.955,1.06-6.193,2.6-12.308,3.732-18.491A109.408,109.408,0,0,0,25.1,82.287c.035-6.506-.654-13-1-19.49Q23.568,52.908,22.914,43.028ZM84.979,2.148A2.322,2.322,0,0,0,82.166.55a2.306,2.306,0,0,0-1.6,2.813,21.4,21.4,0,0,0,2,3.484c.646,1.06,1.589,1.894,2.247,2.935l-.725.782c-.363.39-.727.778-1.095,1.159l-1.265,1.311c-.985,1.019-1.977,2.032-3,3.016a94.2,94.2,0,0,1-9.4,8.168c-.764.564-1.535,1.124-2.326,1.649l-.3.2a2.931,2.931,0,0,1-1.806.645c-1.595-.146-3.036-1.841-4.131-2.9l-.057-.055a61.449,61.449,0,0,1-7.429-8.45q-.732-1.013-1.421-2.057c1.063-1.242.809-3.667.868-5.173.041-1.059.045-2.119.05-3.178l0-.214a2.768,2.768,0,0,0-.4-1.909.1.1,0,0,0-.113-.014A2.492,2.492,0,0,0,51.222,4.22l-.027.062c-.317.72-.62,1.447-.926,2.172-.321.758-.616,1.528-.914,2.3-.139.357-.271.716-.4,1.076q-.118.345-.245.688l-.02.018a2.062,2.062,0,0,0-.286.3,1.435,1.435,0,0,0-.737.936,3.171,3.171,0,0,0,.8,2.588,62.247,62.247,0,0,0,7.051,9.012q1.954,2.061,4.1,3.93l.249.216a8.978,8.978,0,0,0,4.384,2.4c2,.3,3.633-.695,5.166-1.843l.153-.115c1.453-1.1,2.878-2.24,4.258-3.432a67.418,67.418,0,0,0,7.865-7.9,38.785,38.785,0,0,0,6.019-9.247.2.2,0,0,0-.32-.247c-.7.662-1.365,1.361-2.026,2.068-.018-1.041.174-2.092.067-3.139A21.721,21.721,0,0,0,84.979,2.148Z" transform="translate(-0.396 6.702)" fill-rule="evenodd"/>
              </g>
              <g id="head_Short-3" data-name="head/Short-3" transform="translate(28.675 0)">
                <path id="_-Background-2" data-name="ðŸŽ¨-Background" d="M10.905,66.824c1.241-8.955,4.079-17.65,4.486-26.74q.364-5.835.727-11.67a2.37,2.37,0,0,1,4.452-1.1c2.739-3.039,7.644-2.591,11.385-2.5,22.027.781,42.96,15.68,50.521,36.453a2,2,0,0,1-.079,1.494c3.524,11.757-8.94,19.328-17.441,24.571a38.692,38.692,0,0,1-12.079,8.749,42.366,42.366,0,0,1-16.944,3.992A2.132,2.132,0,0,1,33.8,98c-1.856-.432-5.032.067-6.013-1.836C16.593,91.306,9.3,78.98,10.905,66.824Z" transform="translate(-5.626 -13.46)" fill="#fff" fill-rule="evenodd"/>
                <path id="_-Ink-2" data-name="ðŸ–-Ink" d="M12.891,35.065c.032-.29-.387-.3-.474-.064-.709,1.933-1.445,3.853-2.007,5.835-.542,1.91-.932,3.864-1.327,5.809Q8.1,51.489,7.4,56.389a3.241,3.241,0,0,0-3.526-.243,1.459,1.459,0,0,0-.658,1.618,13.163,13.163,0,0,0,.409,1.388,3.661,3.661,0,0,0-.858,1.123,3.9,3.9,0,0,0,.124,3.448c-.039.065-.077.131-.113.2-.733,1.425-.341,2.7.195,4.091.4,1.04.177,2.212,1.043,3a7.959,7.959,0,0,0,1.41,2.679,1.76,1.76,0,0,0,.638.655A29.653,29.653,0,0,0,6.593,78.9c1.176,5.855,4.91,11.071,9.531,14.751A30.657,30.657,0,0,0,31.689,100.1a28.364,28.364,0,0,0,8.33-.251l.344-.061c2.547-.462,5.629-1.227,7.39-3.149.926-1.011.385-3.235-1.253-3.025a9.758,9.758,0,0,0-2.439.57c-.637.25-1.275.49-1.929.694a22.881,22.881,0,0,1-3.848.863,25.706,25.706,0,0,1-8.2-.271,28.068,28.068,0,0,1-13.3-6.516A21.243,21.243,0,0,1,9.6,74.26c-.413-6.451.332-13.056.95-19.474q.482-5.007,1.221-9.987C12.248,41.557,12.536,38.321,12.891,35.065Zm38.02-20.83L50.7,14.2c-8.271-1.259-16.972-1.17-24.746,2.245a28.371,28.371,0,0,0-4.321,2.361c-.984-.1-1.973-.186-2.944-.2a2.341,2.341,0,0,0-2.566,1.856,4.237,4.237,0,0,0-2.875,1.408,2.723,2.723,0,0,0-.528,1.1,9.049,9.049,0,0,0-2.05.758A2.135,2.135,0,0,0,9.7,26.129q.1.287.221.56l.064.136-.038.051a2.205,2.205,0,0,0,.78,2.971,7.446,7.446,0,0,0,2.384,1c-.069.336-.133.675-.184,1.017-.02.139.158.238.237.1a20.473,20.473,0,0,1-.754,1.968c-.178.406.392.766.609.356.578-1.093.936-2.213,1.46-3.339a4.076,4.076,0,0,0,1.433-.354,1.587,1.587,0,0,0,.7-.651c.01.012.016.026.026.04,1.561,2.009,4.612,2.714,6.971,3.349a54.377,54.377,0,0,0,7.726,1.415c4.543.54,9.122.641,13.686.851l.906.044a12.578,12.578,0,0,0,6.691,2.946,12.167,12.167,0,0,0,4.1-.2,4.158,4.158,0,0,0,1.835,1.092,8.347,8.347,0,0,0,3.755,6.478l-.039.154c-.543,2.214-.536,4.634,1.41,6.173a4.737,4.737,0,0,0,.854.535l-.067.153c-1.005,2.35-1.326,4.947.563,6.9a1.746,1.746,0,0,0,2.686-.3l.028-.046c.032-.054.066-.106.1-.159a.483.483,0,0,0,.246.243c.718.309,1.005.081,1.66-.238a10.2,10.2,0,0,1,1.9-.691,10.959,10.959,0,0,1,1.6-.3,8.549,8.549,0,0,1,5.038,8.965,6.075,6.075,0,0,1-3.326,4.865,5.294,5.294,0,0,1-2.758.4c-1.241-.168-2.194-.95-3.478-.5a1.2,1.2,0,0,0-.851,1.119,2.391,2.391,0,0,0,.768,1.971,29.78,29.78,0,0,0-2.408,2.631c-.978,1.043-1.969,2.086-3.025,3.048a26.887,26.887,0,0,1-3.182,2.512l-.118.078c-1.408.917-3.182,1.732-3.25,3.649a1.632,1.632,0,0,0,.8,1.4c1.775,1.1,3.706-.344,5.1-1.4q.84-.639,1.628-1.324a2.316,2.316,0,0,0,1.13-.206,8.078,8.078,0,0,0,.75-.38,2.651,2.651,0,0,0,2.169-.394,5.985,5.985,0,0,0,2.641.069A4.419,4.419,0,0,0,72.8,83.9a4.157,4.157,0,0,0,3.492-.39,3.622,3.622,0,0,0,1.47-1.677,1.506,1.506,0,0,0,.243-.779v-.11A3.59,3.59,0,0,0,80.7,79.869a3.725,3.725,0,0,0,1.063-2.476,4.873,4.873,0,0,0,2.546-1.722,5.013,5.013,0,0,0,.7-4.851c.038-.085.071-.172.1-.259a7.245,7.245,0,0,0,1.44-4.321,3.985,3.985,0,0,0-.085-.7,2.873,2.873,0,0,0,1.6-2.34,3.1,3.1,0,0,0-.774-2.233A3.908,3.908,0,0,0,87.584,59a3.825,3.825,0,0,0-.681-1.791,2.756,2.756,0,0,0-.031-.554,5.189,5.189,0,0,0,.081-.568,5.447,5.447,0,0,0-3.078-4.959,9.958,9.958,0,0,0-1.482-.645,4.935,4.935,0,0,1-1.247-.414c.014-.01-.121-.184-.144-.277a3.471,3.471,0,0,1-.067-.344,11.712,11.712,0,0,1,0-1.488,53.849,53.849,0,0,0-.261-6.708,29.3,29.3,0,0,0-3.617-11.765A26.712,26.712,0,0,0,70.107,21.8C64.594,17.584,57.713,15.293,50.911,14.236Zm25.551,51.3c.718-1.726-2.661-1.743-3.555-1.661l-.026,0c-2.011.2-5.155,1.168-5.977,3.2-.341.84.668,1.751,1.474,1.475a6.311,6.311,0,0,0,1.866-1.359c.166-.133.34-.258.516-.378a1.875,1.875,0,0,1-.448.774l-.049.046c-.973.874.767,2.249,1.413,1.091a3.071,3.071,0,0,0,.374-1.992,2.223,2.223,0,0,0-.168-.575c.064-.032.127-.067.192-.1L72.192,66c.774-.352,4.079-1.732,4.052-.5C76.241,65.642,76.418,65.642,76.463,65.535Z" transform="translate(-2.374 -13.46)" fill-rule="evenodd"/>
              </g>
              <g id="face_Smiling" data-name="face/Smiling" transform="translate(38.371 33.649)">
                <path id="_-Ink-3" data-name="ðŸ–-Ink" d="M28.4,47.688a8.056,8.056,0,0,0,3.384-2.6,1.563,1.563,0,0,0,.317-1.215,1.753,1.753,0,0,0-.682-1.1,1.631,1.631,0,0,0-1.222-.331,1.531,1.531,0,0,0-1.033.683l-.061.084a5.333,5.333,0,0,1-1.954,1.64,4.4,4.4,0,0,1-2.418.425,6.49,6.49,0,0,1-3.941-2.26c-.148-.151-.3-.307-.444-.465a.7.7,0,0,0-.369-.284.793.793,0,0,0-.508.007.807.807,0,0,0-.4.3.741.741,0,0,0-.126.491,5.084,5.084,0,0,0,1.676,3.213,7.19,7.19,0,0,0,7.781,1.41ZM23.6,28.576c-1.494.909-3.771,3.027-2.163,5.279,1.892,1.986,4.616-.291,5.958-1.321,1.245-.8,2.643,1.255,1.488,2.187-9.7,7.184-13.636-5.908-6.039-7.213C23.683,27.364,23.994,28.295,23.6,28.576Zm17.382-8.357c-.165-2.05-3.286-2.515-3.6-.487a8.306,8.306,0,0,0,.867,5.122,1.526,1.526,0,0,0,2.9-.589A16.527,16.527,0,0,0,40.985,20.219Zm-23.756-.908a1.665,1.665,0,0,0-1.816-.739c-2.352.687-1.658,4.027-.833,5.653a1.636,1.636,0,0,0,2.555.329c1.068-1.268,1.58-3.8.222-5.048A1.716,1.716,0,0,0,17.229,19.311Zm21.06-8.062-.371-.065c-1.149-.2-2.578-.39-3.391.534a1.343,1.343,0,0,0,0,1.87c1.019.825,2.146.506,3.368.575a13.4,13.4,0,0,1,2.944.5A20.006,20.006,0,0,1,46.516,17.6c.238.16.482-.145.368-.368a11.731,11.731,0,0,0-5.117-4.772A12.656,12.656,0,0,0,38.289,11.249Zm-18.916-.921-.284.058c-3.094.647-7.114,1.939-8.579,4.98-.056.43,0,.522.051.582l.016.02a.4.4,0,0,0,.257.181l.157-.039a8.882,8.882,0,0,0,1.717-.67l.558-.275a15.367,15.367,0,0,1,1.992-.849,23.452,23.452,0,0,1,4.537-1,1.862,1.862,0,0,0,.91-.346,1.368,1.368,0,0,0,.509-.776,1.391,1.391,0,0,0-.157-1.163,1.473,1.473,0,0,0-.718-.619A1.685,1.685,0,0,0,19.373,10.328Z" transform="translate(-10.487 -10.293)" fill-rule="evenodd"/>
              </g>
              <g id="facial-hair_Chin" data-name="facial-hair/Chin" transform="translate(37.059 50.519)">
                <path id="_-Ink-4" data-name="ðŸ–-Ink" d="M13.393,27.328q8.783,1.291,12.714-.534A78.754,78.754,0,0,0,37.4,20.806a28.707,28.707,0,0,0,8.939-9.152c2.052-3.491,3.757-7.2,5.475-10.872.1-.215,1.086-2.35,1.434-3.067.536-1.11,2.1-.762,2.1.962s.077,14.778-2.935,19.913c-2.717,4.638-7.321,7.879-11.9,10.707-5.061,3.128-11.785,6.508-17.823,7.4A19.842,19.842,0,0,1,7.036,31.5C2.9,27.589,1.727,22.276-.408,17.189a.925.925,0,0,1,1.71-.7Q2.236,18.59,13.393,27.328Z" transform="translate(0.491 2.924)" fill-rule="evenodd"/>
              </g>
              <g id="accessories_Glasses-5" data-name="accessories/Glasses-5" transform="translate(29.112 36.42)">
                <path id="_-Ink-5" data-name="ðŸ–-Ink" d="M8.075,14.733a15.766,15.766,0,0,0,2.452,4.391c4.213,3.569,8.307,1.593,10.386-3.244.79-3.419-1.307-7.1-3.529-9.616-3.209-3.218-8.447-1.529-9.922,2.3a11.8,11.8,0,0,0-.17,1.483,13.055,13.055,0,0,0,.783,4.492m40.5-2.874C43.023,5.056,32.639,4.7,32.9,14.868,34.1,27.735,54.173,24.577,48.573,11.661ZM6.329,6.151A9.253,9.253,0,0,1,6.975,5.2c.087-.052.137-.512.457-.546,4.279-4.723,11.8-2.043,14.513,2.663a7.691,7.691,0,0,1,1.2,2.027,15.5,15.5,0,0,1,8.285.616C33.9,3.51,41.37,2.935,46.294,5.689c3.063,1.507,5.049,4.663,8.027,6.4,7,.5,14.517-1.065,21.393.692,5.423,1.128.89,3.875-.02,2.042-6.482-1.916-14.162-.3-20.893-.729A4.1,4.1,0,0,1,51.422,16.2C49.977,29.013,31.3,26.889,30.658,15.5a8.344,8.344,0,0,0-2.94-2.982,6.318,6.318,0,0,1-1.419-.445,3.608,3.608,0,0,0-2.6.838c-2.368,14.215-16.012,12.56-18.45.106a1.622,1.622,0,0,1-.288-.533c-.835-1.1-2.878-1.514-2.551-3.378C2.7,7.244,5.053,7.267,6.329,6.151Z" transform="translate(-2.374 -2.177)" fill-rule="evenodd"/>
              </g>
            </g>
          </g>
        </g>
      </g>
    </g>
  </g>
</svg>
