<?xml version="1.0" encoding="utf-8"?>
<svg width="24px" height="24px" viewBox="0 0 24 24" version="1.1" xmlns:xlink="http://www.w3.org/1999/xlink" xmlns="http://www.w3.org/2000/svg">
  <g id="vuesaxbrokenlayer" fill-opacity="1">
    <path d="M-2672 -10988L-2672 -10988L-2672 -10964L-2696 -10964L-2696 -10988L-2672 -10988Z" id="vuesaxbrokenlayer" fill="none" stroke="none" />
    <g id="vuesaxbrokenlayer">
      <g id="layer">
        <path d="M18.9193 5.54007C20.6193 6.29007 20.6193 7.53007 18.9193 8.28007L13.0193 10.9001C12.3493 11.2001 11.2493 11.2001 10.5793 10.9001L4.6793 8.28007C2.9793 7.53007 2.9793 6.29007 4.6793 5.54007L10.5793 2.92007C11.2493 2.62007 12.3493 2.62007 13.0193 2.92007L14.9393 3.77007" id="Vector" fill="none" stroke="#FFFFFF" stroke-width="1.5" stroke-linecap="round" stroke-linejoin="round" />
        <path d="M3 11C3 11.84 3.63 12.81 4.4 13.15L11.19 16.17C11.71 16.4 12.3 16.4 12.81 16.17L19.6 13.15C20.37 12.81 21 11.84 21 11" id="Vector" fill="none" stroke="#FFFFFF" stroke-width="1.5" stroke-linecap="round" stroke-linejoin="round" />
        <path d="M3 16C3 16.93 3.55 17.77 4.4 18.15L11.19 21.17C11.71 21.4 12.3 21.4 12.81 21.17L19.6 18.15C20.45 17.77 21 16.93 21 16" id="Vector" fill="none" stroke="#FFFFFF" stroke-width="1.5" stroke-linecap="round" stroke-linejoin="round" />
        <path d="M24 0L24 24L0 24L0 0L24 0Z" id="Vector" fill="none" fill-rule="evenodd" stroke="none" />
      </g>
    </g>
  </g>
</svg>