<svg xmlns="http://www.w3.org/2000/svg" width="379" height="379" viewBox="0 0 379 379">
  <g id="htmlskill" transform="translate(-3803 -957)">
    <circle id="bootstrap" cx="189.5" cy="189.5" r="189.5" transform="translate(3803 957)" fill="#edf5fc"/>
    <g id="html" transform="translate(3871 1008)">
      <path id="Path_1331" data-name="Path 1331" d="M20.365,248.887,0,0,243.211.5,221.677,248.887,122.524,277.6Z" fill="#e34f26"/>
      <path id="Path_1332" data-name="Path 1332" d="M167.279,262.22V32.362l100.156.333-17.86,205.653Z" transform="translate(-44.756 -8.658)" fill="#ef652a"/>
      <path id="Path_1333" data-name="Path 1333" d="M211.174,99.663l2.836-30.382H59.938l8.512,93.146H174.783l-4.17,39.728-34.053,9.179-34.554-10.015-1.836-23.7H69.619l4.174,48.409,62.764,17.527,63.264-17.527,8.512-94.48H96.663L93.491,99.663Z" transform="translate(-16.036 -18.536)" fill="#fff"/>
    </g>
  </g>
</svg>
