<svg id="Outlook" xmlns="http://www.w3.org/2000/svg" width="60" height="60" viewBox="0 0 60 60">
  <path id="back" d="M0,30A30,30,0,1,1,30,60,30,30,0,0,1,0,30Z" fill="#fff"/>
  <g id="Outlook.com_icon" transform="translate(13 12)">
    <path id="path3" d="M0,0V7.364l2.4,1.62a.574.574,0,0,0,.264,0L13,1.517A1.543,1.543,0,0,0,11.8,0Z" transform="translate(22 8)" fill="#0072c6"/>
    <path id="path5" d="M0,5.393,2.192,6.941a.639.639,0,0,0,.681,0C2.5,7.175,13,0,13,0V12.992A1.793,1.793,0,0,1,11.131,15H0V5.393Z" transform="translate(22 12)" fill="#0072c6"/>
    <path id="path25" d="M2.552,0A2.109,2.109,0,0,0,.69,1.1,5.442,5.442,0,0,0,0,4.018,5.335,5.335,0,0,0,.69,6.93a2.092,2.092,0,0,0,3.634.029A5.287,5.287,0,0,0,5,4.069a5.756,5.756,0,0,0-.655-3A2.014,2.014,0,0,0,2.552,0Z" transform="translate(8 14)" fill="#0072c6"/>
    <path id="path27" d="M21,36h0L0,31.605V4.056L21,0V36ZM10.736,11.7A4.228,4.228,0,0,0,7.2,13.479a7.566,7.566,0,0,0-1.335,4.648,7.044,7.044,0,0,0,1.314,4.416,4.13,4.13,0,0,0,3.4,1.694,4.183,4.183,0,0,0,3.473-1.75,7.426,7.426,0,0,0,1.33-4.606A7.277,7.277,0,0,0,14.1,13.4,4.032,4.032,0,0,0,10.736,11.7Z" fill="#0072c6"/>
  </g>
</svg>
