<svg xmlns="http://www.w3.org/2000/svg" width="94.083" height="94.083" viewBox="0 0 94.083 94.083">
  <g id="vuesax_outline_coffee" data-name="vuesax/outline/coffee" transform="translate(-364 -444)">
    <g id="coffee" transform="translate(364 444)">
      <path id="Vector" d="M48.335,67.583H19.444A19.466,19.466,0,0,1,0,48.139v-28.7A19.466,19.466,0,0,1,19.444,0H48.335A19.466,19.466,0,0,1,67.779,19.444v28.7A19.491,19.491,0,0,1,48.335,67.583ZM19.444,5.88A13.568,13.568,0,0,0,5.88,19.444v28.7A13.568,13.568,0,0,0,19.444,61.7H48.335A13.568,13.568,0,0,0,61.9,48.139v-28.7A13.568,13.568,0,0,0,48.335,5.88Z" transform="translate(4.9 21.6)" fill="#f80c40"/>
      <path id="Vector-2" data-name="Vector" d="M2.94,12.74A2.962,2.962,0,0,1,0,9.8V2.94A2.962,2.962,0,0,1,2.94,0,2.962,2.962,0,0,1,5.88,2.94V9.8A2.962,2.962,0,0,1,2.94,12.74Z" transform="translate(18.621 5.88)" fill="#f80c40"/>
      <path id="Vector-3" data-name="Vector" d="M2.94,12.74A2.962,2.962,0,0,1,0,9.8V2.94A2.962,2.962,0,0,1,2.94,0,2.962,2.962,0,0,1,5.88,2.94V9.8A2.962,2.962,0,0,1,2.94,12.74Z" transform="translate(34.301 5.88)" fill="#f80c40"/>
      <path id="Vector-4" data-name="Vector" d="M2.94,12.74A2.962,2.962,0,0,1,0,9.8V2.94A2.962,2.962,0,0,1,2.94,0,2.962,2.962,0,0,1,5.88,2.94V9.8A2.962,2.962,0,0,1,2.94,12.74Z" transform="translate(49.982 5.88)" fill="#f80c40"/>
      <path id="Vector-5" data-name="Vector" d="M2.94,38.888A2.962,2.962,0,0,1,0,35.948V2.94A2.962,2.962,0,0,1,2.94,0a19.444,19.444,0,0,1,0,38.888ZM5.88,6.194v26.5a13.575,13.575,0,0,0,0-26.5Z" transform="translate(66.799 32.145)" fill="#f80c40"/>
      <path id="Vector-6" data-name="Vector" d="M63.741,5.88H2.94A2.962,2.962,0,0,1,0,2.94,2.962,2.962,0,0,1,2.94,0h60.8a2.961,2.961,0,0,1,2.94,2.94A2.961,2.961,0,0,1,63.741,5.88Z" transform="translate(4.9 44.101)" fill="#f80c40"/>
      <path id="Vector-7" data-name="Vector" d="M0,0H94.083V94.083H0Z" fill="none" opacity="0"/>
    </g>
  </g>
</svg>
