<svg id="vuesax_outline_mirroring-screen" data-name="vuesax/outline/mirroring-screen" xmlns="http://www.w3.org/2000/svg" width="94" height="94" viewBox="0 0 94 94">
  <g id="mirroring-screen">
    <path id="Vector" d="M22.521,76.375h3.917a2.938,2.938,0,0,0,0-5.875H22.521c-10.105,0-16.646-6.541-16.646-16.646V22.521c0-10.105,6.541-16.646,16.646-16.646H61.688c10.105,0,16.646,6.541,16.646,16.646v3.917a2.938,2.938,0,0,0,5.875,0V22.521C84.208,9.047,75.161,0,61.688,0H22.521C9.048,0,0,9.047,0,22.521V53.854C0,67.328,9.048,76.375,22.521,76.375Z" transform="translate(4.896 8.813)" fill="#f80c40"/>
    <path id="Vector-2" data-name="Vector" d="M2.92,39.58a2.948,2.948,0,0,0,2.9-2.546C7.973,20.271,20.193,8.012,37,5.858A2.942,2.942,0,0,0,36.251.022C16.746,2.529,2.489,16.746.022,36.251a2.95,2.95,0,0,0,2.546,3.29A.973.973,0,0,0,2.92,39.58Z" transform="translate(42.943 42.905)" fill="#f80c40"/>
    <path id="Vector-3" data-name="Vector" d="M2.92,30.611a2.948,2.948,0,0,0,2.9-2.546A25.078,25.078,0,0,1,28.026,5.858,2.942,2.942,0,1,0,27.282.022,30.784,30.784,0,0,0,.022,27.282a2.95,2.95,0,0,0,2.546,3.29A1.085,1.085,0,0,0,2.92,30.611Z" transform="translate(56.104 56.064)" fill="#f80c40"/>
    <path id="Vector-4" data-name="Vector" d="M2.959,18.234a2.948,2.948,0,0,0,2.9-2.546,11.083,11.083,0,0,1,9.831-9.831A2.942,2.942,0,1,0,14.944.022,17.056,17.056,0,0,0,.022,14.944a2.95,2.95,0,0,0,2.546,3.29Z" transform="translate(70.947 70.948)" fill="#f80c40"/>
    <path id="Vector-5" data-name="Vector" d="M94,0H0V94H94Z" fill="none" opacity="0"/>
  </g>
</svg>
