<svg xmlns="http://www.w3.org/2000/svg" width="95.803" height="95.803" viewBox="0 0 95.803 95.803">
  <g id="vuesax_outline_3dcube" data-name="vuesax/outline/3dcube" transform="translate(-300 -508)">
    <g id="_3dcube" data-name="3dcube" transform="translate(300 508)">
      <path id="Vector" d="M34.928,43.76a11.012,11.012,0,0,1-5.109-1.277L3.832,28.471a7.576,7.576,0,0,1,0-13.173L29.819,1.287A10.7,10.7,0,0,1,40,1.287L65.984,15.3a7.576,7.576,0,0,1,0,13.173L40,42.483A10.288,10.288,0,0,1,34.928,43.76Zm0-37.8a4.73,4.73,0,0,0-2.275.6L6.706,20.528a1.494,1.494,0,0,0-.719,1.357A1.406,1.406,0,0,0,6.706,23.2L32.693,37.213a4.756,4.756,0,0,0,4.511,0L63.19,23.2a1.573,1.573,0,0,0,.719-1.317,1.406,1.406,0,0,0-.719-1.317L37.2,6.556A4.73,4.73,0,0,0,34.928,5.958Z" transform="translate(12.973 5.139)" fill="#f80c40"/>
      <path id="Vector-2" data-name="Vector" d="M34.05,53.722a7.5,7.5,0,0,1-3.313-.8L6.547,40.868A11.851,11.851,0,0,1,0,30.25V7.417A7.411,7.411,0,0,1,10.738.791l24.19,12.055a11.807,11.807,0,0,1,6.547,10.618V46.3A7.366,7.366,0,0,1,37.962,52.6,7.281,7.281,0,0,1,34.05,53.722ZM7.425,5.98a1.734,1.734,0,0,0-.758.2,1.429,1.429,0,0,0-.679,1.237V30.25a5.865,5.865,0,0,0,3.233,5.269l24.15,12.1a1.475,1.475,0,0,0,1.4-.04,1.429,1.429,0,0,0,.679-1.237V23.5a5.865,5.865,0,0,0-3.233-5.269L8.063,6.14A1.369,1.369,0,0,0,7.425,5.98Z" transform="translate(4.99 36.972)" fill="#f80c40"/>
      <path id="Vector-3" data-name="Vector" d="M7.425,53.761a7.281,7.281,0,0,1-3.912-1.118A7.366,7.366,0,0,1,0,46.337V23.5A11.851,11.851,0,0,1,6.547,12.886L30.7.791A7.411,7.411,0,0,1,41.435,7.417V30.25a11.851,11.851,0,0,1-6.547,10.618l-24.15,12.1A6.993,6.993,0,0,1,7.425,53.761ZM34.05,6.02a1.369,1.369,0,0,0-.639.16l-24.15,12.1a5.821,5.821,0,0,0-3.233,5.269V46.377a1.429,1.429,0,0,0,.679,1.237,1.371,1.371,0,0,0,1.4.04l24.15-12.1a5.865,5.865,0,0,0,3.233-5.269V7.457a1.429,1.429,0,0,0-.679-1.237A1.734,1.734,0,0,0,34.05,6.02Z" transform="translate(49.338 36.932)" fill="#f80c40"/>
      <path id="Vector-4" data-name="Vector" d="M0,0H95.8V95.8H0Z" fill="none" opacity="0"/>
    </g>
  </g>
</svg>
