<svg xmlns="http://www.w3.org/2000/svg" width="574.707" height="872" viewBox="0 0 574.707 872">
  <g id="Introduction" transform="translate(0 0)">
    <g id="variations" transform="translate(0 0)">
      <g id="images" transform="translate(0 0)">
        <g id="a-person_bust" data-name="a-person/bust" transform="translate(0 0)">
          <g id="body_Coffee" data-name="body/Coffee" transform="translate(0 327.401)">
            <path id="_-Background" data-name="ðŸŽ¨-Background" d="M302.786,11.183c-18.1-14.279-63.538-20.7-82.856-6.951-19.08,13.806-21.16,36.133-30.05,56.672-8.389-4.1-22.242,1.771-24.674,9.835-3.016,3.8-3.152,14.489-5.232,19.6C69.465,105.267,55.724,178.373,44.83,261.369,30.418,345.589-2.3,429.624,11.9,516.288a50.249,50.249,0,0,0-4.659,8.673c-3.233,5.7.931,13.765,7.452,13.453,8.44-.768,16.8-1.816,25.276-2.144,23.507-.846,47.034-.745,70.55-.435l3.207.043c118.511,1.528,237.015,4.54,355.531,5.339,4.3.006,6.4-3.989,5.83-7.93-1.156-7.934-2.229-15.872-3.349-23.811,28.032,7.671,57.833,9.6,85.786.807,1.955-2.064-4.556-.945-5.589-1.259,25.725-18.212,18.043-56.579,15.764-84.213-14.17-94.689-19.165-199.456-73.913-280.255C470.1,111.583,435.381,85.476,395.48,79.6l-1.107-.157c-11.667-1.612-24.669-2.131-34.87-8.706-11.473-9.489-16.362-27.022-28.431-27.186-3.985-.054-9.407,5.169-15.241,8.716-.436-7.8-4.494-14.386-5.39-20.435l-.073-.517C309.433,24.264,310.713,17.919,302.786,11.183ZM108.274,263.871c25.436-18.307,91.141-9.108,92.645-8.083,3.312,2.257,4.738,2.456,6.529,5.387q2.653.365,5.3.755c3.542,1.2.917,5.712-3.174,4.1,2.461,11-4.781,18.815-7.664,29.684-.936,3.529-.034,9.877,0,13.483-.28,4.6-5.186,10.029-4.369,14.642,2.907,16.4,18.685,32.4,12.033,48.3-4.407,8.983-17.66,13.563-26.472,16.617-18.256,7.259-50.066-.273-60.673-16.617-5.658-8.717-12.213-30.707-15.586-37.528L106.1,323.8C104.252,296.9,102.612,267.946,108.274,263.871Z" transform="translate(0.482 3.382)" fill="#fff" fill-rule="evenodd"/>
            <path id="_-Ink" data-name="ðŸ–-Ink" d="M341.055,29.357a2.1,2.1,0,0,0-3.239,2.59,85.529,85.529,0,0,0,8.445,13.85c2.041,2.621,4.226,5.1,6.441,7.553-5.685,5.095-10.56,11.42-15.164,17.348-5.887,7.582-11.453,15.485-18.061,22.423a57.385,57.385,0,0,1-22.437,14.814l-1.76.633c-8.753,3.184-18.109,7.483-23.042,16.069-.973,1.693.986,3.785,2.633,2.729,8.573-5.5,18.647-6.606,27.979-10.24a69.426,69.426,0,0,0,23.817-15.808C333.6,94.434,339.42,86.6,345.491,78.936A167.394,167.394,0,0,1,365.06,58.468c10.958,7.638,23.467,10.961,36.186,14.225l1.388.356c12.734,3.266,25.4,7.06,37.348,12.748,10.533,5.014,20.893,11,29.474,19.162,9.108,8.66,16.2,19.72,22.685,30.536,14.513,24.2,24.716,50.71,33.7,77.543A823.281,823.281,0,0,1,549.3,298.227c3.209,14.653,5.814,29.411,7.956,44.271q1.546,10.736,2.751,21.518c.859,7.676,1.056,15.573,3.329,22.954.974,3.163,3.275,4.476,5.578,4.364l.468,6.061c.62,8.081,1.2,16.164,1.394,24.3.324,13.52.177,27-.762,40.492l-.133,1.84c-.738,9.846-2.386,20.91-9.532,28.119-7.4,7.467-18.783,9.815-28.758,9.95-23.233.314-45.6-11.059-66.157-21.037-21.174-10.276-41.769-21.681-61.87-34.051q-15.356-9.449-30.361-19.508-7.359-4.933-14.612-10.03c-2.769-1.946-5.393-4.08-8.213-5.807a4.139,4.139,0,0,0,.841-5.257c8.15-7.329,11.541-20.407,11.938-30.99.32-8.542-.893-17.06-1.851-25.521-.483-4.267-1.08-8.526-1.7-12.774-.245-1.678-.432-3.473-.718-5.245a663.107,663.107,0,0,0,67.85,33.6c11.9,5.081,23.958,9.65,36.18,13.836l2.477.844c11.58,3.927,23.438,7.637,35.409,9.882.64.12,1.16-.859.477-1.171-11.667-5.333-23.738-9.832-35.58-14.744l-1.946-.821h0a3.787,3.787,0,0,0,.7-.1c6.945-1.737,13.836-4.413,20.647-6.666,6.322-2.091,13.424-3.4,19.333-6.562.455-.243.2-.9-.243-.929-6.641-.477-13.851,1.528-20.363,2.708l-2.446.444c-4.1.749-8.287,1.553-12.365,2.6a5.483,5.483,0,0,0-2-3.67c-11.949-9.168-10.736-27.685-12.014-41.339l-.948-10.137c-1.667-17.741-3.43-35.48-6.109-53.089-.143-.94-1.547-.671-1.553.217-.138,21.828,1.452,43.555,2.249,65.349l.123,3.575c.441,13.448.786,27.411,8.961,37.759a2.742,2.742,0,0,0-3.615.449,7.162,7.162,0,0,0-1.774,4.524q-11.081-4.813-22.061-9.86c-23.531-10.8-46.568-22.887-69-35.965a4.227,4.227,0,0,0-5.9,1.554l-.172-.026a.766.766,0,0,0-.088-.008l-.171-.008h-.019c-3.157-1.8-7.458-.517-10.167,2.1-.08.079-.148.164-.219.248a36.187,36.187,0,0,1-9.539-6.478c-5.948-5.585-10.986-12.491-15.378-19.415-8.088-12.754-14.958-26.937-25.884-37.436-8.877-8.53-19.882-13.84-31.428-17.175a1.213,1.213,0,0,0-.314-.969c-.593-.63-1.016-.848-1.782-.466a.28.28,0,0,0-.122.119l-1.127-1.994c-.615-1.082-1.246-2.172-1.465-2.459-1.311-1.71-2.66-3.407-4.03-5.068a35.808,35.808,0,0,0-8.032-7.539c-6.709-4.27-13.762-1.854-20.659.48-4.168,1.411-8.321,2.867-12.481,4.3l-.429.145c-3.1,1.033-6.732,1.936-8.119,5.341a7.2,7.2,0,0,0-.378,4.1c-29.463-7.763-62.188-4.2-90.939,4.916a3.539,3.539,0,0,0-2.438,2.525c-3.294,17.5-4.761,35.452-3.271,53.253,1.286,15.366,4.572,30.424,10.765,44.492l.352.794c5.82,13.037,15.044,29.108,29.131,33.195,8.506,2.467,17.914,1.013,26.589.561,8.431-.44,17.049-.5,25.4-1.877,7.438-1.223,13.954-4.677,18.551-10.943,3.965-5.406,6.053-11.938,7.764-18.437.783.258,1.561.533,2.326.843a25.586,25.586,0,0,1,8.444,5.9c5.227,5.244,9.282,11.614,14.751,16.618a61.955,61.955,0,0,0,16.643,10.762c12.539,5.613,25.99,7.856,39.253,10.831l.925.209c9.985,2.27,20.176,5.057,28.99,10.443a6.293,6.293,0,0,0,1.987,4.054,4.854,4.854,0,0,0-.847,6.155c3.815,6.273,10.388,9.843,16.288,13.855l.384.262q8.706,5.98,17.561,11.722c12,7.783,24.249,15.138,36.671,22.169,19.981,11.309,40.39,21.976,61.169,31.652-1.247,6.357-.792,12.912-1.729,19.311l-.144.913a6.329,6.329,0,0,0,1.72,5.914l.167.159,0-.021.148.141.049.043-.016-.013a5.473,5.473,0,0,0,.561.471l.244.162h0a5.028,5.028,0,0,0,5.036.1l.178-.1.3-.178a6.047,6.047,0,0,0,2.623-6.677c-2.1-5.931-2.89-12.261-4.827-18.232l1.537.712h0l2.026.915c21.907,9.814,46.241,18.079,70.11,11.388,10.546-2.957,20.4-9.212,25.681-19.407,5.193-10.032,5.927-21.68,6.2-32.839a273.743,273.743,0,0,0-2.126-41.411,256.29,256.29,0,0,0-4.8-27.575,6.926,6.926,0,0,0,2.178-4.347c1.036-8.664-.777-17.671-1.887-26.289q-1.627-12.623-3.637-25.186c-2.736-16.909-5.914-33.782-9.615-50.492a681.142,681.142,0,0,0-25.753-87.466l-.917-2.484c-9.675-26.062-20.877-51.568-36.476-74.464-7.462-10.954-15.35-20.885-25.893-28.779-9.878-7.4-21.02-12.721-32.518-16.791a181.845,181.845,0,0,0-35.382-8.5c-12.228-1.724-25.134-2.782-36.541-7.978,1.443-2.68.2-6.3-2.224-7.96C355.937,43.358,348.38,36.081,341.055,29.357ZM79.442,272.607a.554.554,0,0,0-1.005.439c3.975,16.871,7.706,33.775,10.142,50.968,4.4,31.031,3.589,62.467,3.23,93.727l-.018,1.617c-.185,16.838-.441,33.677-.979,50.509-.271,8.506-.808,17.1-.516,25.607.159,4.617,1.347,8.984,1.768,13.546a87.443,87.443,0,0,1-.144,12.033c-.123,2.656,3.66,2.542,3.918,0l.329-3.289a57.53,57.53,0,0,1,2.272-12.282,69.141,69.141,0,0,0,2.892-14.526c.841-7.708,1.215-15.494,1.54-23.256l.222-5.369a892.037,892.037,0,0,0-.887-97.437l-.16-2.314C99.872,331.948,96.1,298.852,79.442,272.607ZM164.168,79.549c1.038-.442.675-2.068-.475-1.785l-2.091.517c-15.32,3.8-30.362,7.921-44.662,14.995a100.355,100.355,0,0,0-36.048,30.64c-18.712,25.259-26.487,55.955-32.626,86.623-6.822,34.078-13.033,68.28-19.914,102.347l-1.278,6.346c-6.367,31.73-12.379,63.477-16.808,95.582l-.318,2.328c-4.467,33.015-7.154,67.173-2.28,100.273.964,6.549,11.483,4.918,11.071-1.552-1.188-18.7-2.038-37.311-1.216-56.057s2.52-37.418,5.05-56c2.129-15.641,5.3-31.087,8.113-46.6l.44-2.451c2.352-13.2,4.777-26.382,7.2-39.567l3.616-19.741c5.419-29.56,10.944-59.145,17.188-88.519l.371-1.728c6.11-28.26,15.117-57.862,33.444-80.3C111.539,102.115,138.163,90.645,164.168,79.549ZM231.746,379.3a1.427,1.427,0,0,0-2.493,0c-1.885,3.6-2.094,8.2-2.45,12.268l-.037.419c-.453,4.963-.854,9.942-1.1,14.921q-.7,14.174-.66,28.347c.029,9.7.218,19.38.722,29.062l.137,2.594c.461,8.413,1.233,17.8,5.092,25.153,1.4,2.675,5.217,1.888,6.03-.816,2.662-8.854,1.295-19.352.612-28.421l-.53-7.076c-.525-7.077-1.025-14.156-1.423-21.241-.544-9.694-.993-19.4-1.425-29.094q-.21-4.725-.452-9.451l-.247-4.724C233.312,387.287,233.329,382.951,231.746,379.3ZM531,391.847l-1.178-1.179c-3.617-3.667-8.188-9.315-13.535-8.965a3.308,3.308,0,0,0-3.049,4.147c.944,4.646,5.519,7.057,8.812,9.893,3.607,3.106,7.007,6.426,10.4,9.779,3.01,2.972,5.905,6.029,8.731,9.182l1.056,1.187c1.013,1.145,8.226,7.9,7.446,9.658l-.042.079a.463.463,0,0,0,.5.68c3.115-1.019,2.92-3.785,1.743-6.588-2.263-5.384-6.225-10.365-9.685-14.963A124.913,124.913,0,0,0,531,391.847ZM220.459,256.82c2.409-5.9,11.281-5.774,16.318-5.421,12.685.888,26.409,4.213,37.7,10.355,11.7,6.368,19.583,16.571,26.635,27.854l.33.53c6.874,11.07,13.494,24.175,24.258,31.786,5.482,3.878,11.884,7.419,18.536,8.952a3.417,3.417,0,0,0,2.167,1.73l.451.107a23.736,23.736,0,0,0,7.38.626c-.017,1.288,0,2.567-.035,3.788-.09,3.5-.128,7.011-.128,10.512,0,7.334.379,14.683.084,22.016-.262,6.487-1.146,13.264-4.152,19.062a28.4,28.4,0,0,1-8.628,9.757c-8.642-5.456-18.413-8.782-28.33-11.283-11.994-3.024-24.274-5.042-36-9.143a63.23,63.23,0,0,1-15.979-8.066c-5.215-3.726-9.2-8.767-13.3-13.7l-.641-.766c-4.183-4.97-8.747-9.726-14.658-12.42-5.091-2.321-11.8-2.735-16.252-6.326-2.327-1.879-2.522-4.606-2.767-7.4,2.851.422,5.869-.254,8.71-.6l1.472-.179a57.458,57.458,0,0,0,7.956-1.4.544.544,0,0,0,0-1.03,67.135,67.135,0,0,0-9.428-1.582l-.753-.1c-2.9-.394-5.947-.989-8.791-.327a25.414,25.414,0,0,0-2.281-5.855c-1.451-2.7-4.2-5.766-4.568-8.922a5.321,5.321,0,0,1,.53-2.887l.148-.284a2.37,2.37,0,0,1,.706-.882.573.573,0,0,0,.267.141,4.29,4.29,0,0,0,5.111-2.106c4.3.553,9,.367,13.031.552l4.079.2a50.228,50.228,0,0,0,13.01-.615.765.765,0,0,0,.172-1.367c-5.035-2.231-11.143-2.943-16.533-3.8-3.011-.479-6.043-.844-9.062-1.266-2.01-.281-4.144-.745-6.227-.857-5.223-6.736-2.409-17.361,4.86-20.262,2.648,1.206,5.028.5,7.921.247s5.782-.431,8.681-.418c5.809.027,11.965,1.61,17.718.928.936-.112,1.805-1.4.875-2.188-4.4-3.723-10.715-4.937-16.3-5.73l-1.159-.161c-1.874-.254-4.153-.626-6.517-.847a3.723,3.723,0,0,0-2.934-2.1c-.428-.061-.859-.1-1.288-.134l.007-.044h0C219.343,265.328,219.5,259.179,220.459,256.82ZM461,371.847a3.117,3.117,0,0,0,.2.285l.112.134-.578-.243.264-.175ZM159.147,243.641c14.789-1.646,29.6-1.3,44.432-.857,1.186,4.02,5.316,7.446,9.317,7.575a18.869,18.869,0,0,0-1.26,16.87,21.335,21.335,0,0,0-11.125,10.3,22.517,22.517,0,0,0,.4,20.723,14.9,14.9,0,0,0-4.37,11.122c.188,4.569,2.817,8.472,5,12.255,2.36,4.091,2.439,7.694,3.165,12.276,1.061,6.706,5.427,10.773,11.044,13.313l-.3,1.217c-1.448,5.84-3.25,12-7.389,16.273-5.324,5.494-13.585,5.443-20.619,5.791l-.339.017c-6.442.334-12.881.725-19.32,1.1l-4.83.28c-7.414.422-14.534.473-20.587-4.6-9.882-8.289-16.656-22.007-20.943-34.152-9-25.49-9.107-53.464-4.976-80.011A207.818,207.818,0,0,1,159.147,243.641Zm122.988,42.29-.109.008c-3.045.36-5.137,2.915-5.882,5.945-1.082,4.4-.551,8.386-3.155,12.362-2.678,4.088-4.325,7.362-4.715,12.412a44.452,44.452,0,0,1-.533,6.186l-.324,1.425a13.8,13.8,0,0,0-.454,4.615,3.374,3.374,0,0,0,2.3,3.124c4.695,1.556,8.32-2.028,9.532-6.561,1.048-3.915-.351-8.581,1.127-12.257.819-2.038,2.329-3.743,3.183-5.794a19.529,19.529,0,0,0,1.406-6.369c.257-4.181-3.312-9.2-1.32-12.993C283.611,287.227,283.131,285.906,282.134,285.931ZM344.5,242.785c-3.179-.669-6.786-2.2-9.921-.928a2.527,2.527,0,0,0-1.046,4.107c2.364,2.455,5.8,2.592,8.984,3.171l.28.052q5.648,1.082,11.313,2.055,10.658,1.829,21.375,3.213c7.341.941,14.7,1.779,22.074,2.41l2.854.243c6.227.516,12.706.905,18.816-.083.888-.144.745-1.483,0-1.718-6.693-2.1-14.036-2.662-20.956-3.55-7.357-.946-14.7-1.945-22.027-3.13s-14.618-2.454-21.9-3.857Q349.414,243.82,344.5,242.785Zm-114.714-6.739c2.79-1.023,5.859-2.539,8.882-2.032,5.213.875,9.853,6.137,13.979,9.6l-2.072-.417c-10.6-2.111-24.641-4.385-33.541,2.6-.023-.04-.04-.081-.066-.121a19.914,19.914,0,0,0-2.459-2.979c-.087-.085-.171-.172-.253-.262l-.49-.541,1.121-.4c2.4-.879,5.246-2.015,5.7-2.181l.031-.011C223.671,238.227,226.736,237.165,229.782,236.046ZM316.889,5.822c.436-5.813-8.3-5.766-8.73,0a66.124,66.124,0,0,0,7.675,36.09c.043.081.091.152.136.228-3.681,1.984-7.4,3.888-11.209,5.589-4.868,2.177-9.827,4.16-14.875,5.842-4.566,1.522-10.192,2.123-14.031,5.291-8.1,6.679-5.054,20.539-3.5,29.523L272.6,89.8c.775,4.623,1.336,9.366-.545,13.8-2.009,4.739-6.072,8.255-9.7,11.646l-.732.688c-3.211,3.03-6.88,6.713-9.235,10.821-2.15-4.6-5.08-8.368-8.179-12.6-2.211-3.023-.637-4.02.951-6.973a14.445,14.445,0,0,0,1.8-9.116c-.882-5.989-5.5-10.315-10.1-13.565-5.431-3.837-11.492-6.679-17.107-10.249a234.7,234.7,0,0,1-32.893-25.031c-.279-.258-.763.08-.54.431a131.469,131.469,0,0,0,28.894,32.729c4.672,3.747,9.58,6.856,14.521,10.123l1.42.944c1.984,1.331,4.458,3.111,5.355,5.378s-1.022,4-2.058,5.889c-3.29,6-1.7,11.592,2.2,16.678l.182.234c3.876,4.948,6.813,9.55,8.218,15.872,3.018,13.58-1.186,27.725-5.587,40.474l-.174.5c-2.381,6.872-4.911,13.693-6.979,20.675l-.569,1.93c-1.874,6.424-3.409,12.76-1.306,19.364a2.68,2.68,0,0,0,4.9.663c4.333-7.455,5.413-16.426,8.128-24.623,2.647-7.988,5.686-15.832,8.243-23.853,3.292-10.327,5.5-21.444,4.3-32.276.035-.063.074-.122.1-.189l.838-1.9c2.285-5.143,4.492-9.634,8.648-13.733,4.335-4.276,9.04-8.061,12.451-13.237,7.409-11.243,2.827-23.751,1.932-36.045l-.1-1.508c-.163-2.553-.252-6.021,1.358-7.788,1.81-1.989,6.056-2.5,8.458-3.377a133.936,133.936,0,0,0,18.151-8.112,114.974,114.974,0,0,0,15.92-10.3l2.535-1.976c4-3.127,8.148-6.542,10.829-10.8.309-.49-.216-1.281-.776-1.046-4.476,1.882-8.565,4.875-12.752,7.479q-.1-.238-.227-.48A57.26,57.26,0,0,1,316.889,5.822ZM173.925,72.377c-1.783-5.066-9.91-4.675-9.586,1.345.248,4.624,2.144,8.8,3.876,13l.185.45a84.507,84.507,0,0,0,6.328,12.491A158.864,158.864,0,0,0,190.9,121.15c5.358,6.086,12.391,9.808,20.5,9.189a22.809,22.809,0,0,0,9.854-2.928c3.554-2.1,7.413-8.4,11.948-6.877a.5.5,0,0,0,.469-.833c-5.234-4.367-11.176,2.4-16.187,4.036-7.551,2.457-15.3-.26-20.161-6.584A215.534,215.534,0,0,1,183.3,95.966a103.628,103.628,0,0,1-5.849-11.345C175.732,80.68,175.34,76.4,173.925,72.377ZM186.1,41.2a.842.842,0,0,0-1.212-.965c-3.439,2.32-6.42,5.385-9.593,8.072q-5.28,4.471-10.667,8.776c-5.249,4.192.839,11.91,5.459,7.33C176.408,58.148,183.334,49.956,186.1,41.2Zm18.884-24.521c-1.4-5.582-9.662-3.28-8.457,2.237l.039.168a24.136,24.136,0,0,1-7.9,24.3l-.255.215c-4.388,3.638,1.829,10,6.173,6.395C204.062,42.128,208.007,28.77,204.981,16.679Z" transform="translate(-5.07 15.992)" fill-rule="evenodd"/>
          </g>
          <g id="head_Twists-2" data-name="head/Twists-2" transform="translate(112.032 0)">
            <path id="_-Background-2" data-name="ðŸŽ¨-Background" d="M14.357,149.807c2.722-22.5,11.271-46.391,20.262-67.368,20.218-44.352,66.5-50.458,108-59.6,40.945-6.176,84.3-11.752,124.632.57,22.672,5.754,31.526,33.728,27.948,55.8-2.042,13.756-8.086,26.775-13.24,39.524-10.244,26.181-16.743,54.211-16.754,82.558.7,18.524,3.227,39.668-17.321,47.514-19.552,10.073-21.2,37.381-45.687,52.874-9.9,20.775-36.866,22.6-56.275,27.423a364.274,364.274,0,0,1-37.113,5.379c-36.02,4.782-64.835-6.031-83.69-39.274C12.5,274.976,3.1,251.616,5.424,227.1,7.736,201.277,11.587,175.592,14.357,149.807Z" transform="translate(1.739 32.554)" fill="#fff" fill-rule="evenodd"/>
            <path id="_-Ink-2" data-name="ðŸ–-Ink" d="M142.776,4.024c-2.056-2.414-5.223-1.586-7.146.323a14.042,14.042,0,0,0-3.61,1.7,46.823,46.823,0,0,0-7.84-.248,13.541,13.541,0,0,0-1.994-.95A13.884,13.884,0,0,0,108.759,6.5a8.911,8.911,0,0,0-7-2.713,8.793,8.793,0,0,0-6.039,3.086,9.564,9.564,0,0,0-7.33-4.287c-4.456-.328-8.739,1.523-12.289,4.389A10.442,10.442,0,0,0,68.074,3.09a13.014,13.014,0,0,0-6.221.381,16.912,16.912,0,0,0-7.378,4.751c-3.167-3.142-7.043-5.4-11.513-5.073-5.785.433-10.58,4.84-12.809,10.263A29.232,29.232,0,0,0,19.6,20.66c-.161.174-.315.356-.477.539a15.2,15.2,0,0,0-4.509,2.666C10.342,27.55,9.389,32.882,10.8,38.108c-.2.836-.367,1.687-.521,2.537A13.228,13.228,0,0,0,.576,47.566c-2.83,5.348-2.273,12.4.792,17.5a23.332,23.332,0,0,0,4.868,5.665,14.706,14.706,0,0,0,2.32,15.006,19.228,19.228,0,0,0,3.011,3.791,12.138,12.138,0,0,0,5.507,13.261l.386,1q.1.25.2.5c.05.213.111.419.172.626a10.415,10.415,0,0,0,1.848,5.329c2.369,3.475,5.3,5.741,6.861,9.8l.156.426c.669,1.92,2.831,3.274,4.673,2.681C21.144,144.9,15.783,169.112,12.1,192.837c-1.835,11.836-3.252,23.713-4.4,35.635L6.575,240.345C5.584,250.9,4.7,261.486,4.7,272.074c-.015,23.952,6.6,46.991,20.794,66.051,13.425,18.018,32.423,31.076,53.884,36.218,22.158,5.3,48.15,3.213,68.02-8.926,5.858-3.57.726-12.154-5.235-9.282-11.284,5.439-22.751,9.48-35.26,10.384A87.761,87.761,0,0,1,70.92,361.7c-19.129-6.844-35.407-21.178-45.87-39.029a90.97,90.97,0,0,1-10.873-28.434c-2.473-12.574-2.1-25.571-1.192-38.306l.063-.868c1.8-24.537,4.165-49.225,7.992-73.517a403.751,403.751,0,0,1,15.339-63.109,36.292,36.292,0,0,1,8.771-5.925,607.027,607.027,0,0,1,69.579.947,559.938,559.938,0,0,1,58.914,7.339l2.089.38c4.319.8,9.114,1.253,13.183,3.054,3.49,1.55,4.905,4.527,5.785,8.188,2.214,9.26,2.552,19.394,2.926,28.89.367,9.282-.462,18.641.257,27.893.609,7.741,2.522,15.664,8.058,21.263,2.9,2.931,6.46,4.534,9.8,6.76,2.163,1.436,3.079,2.917,2.8,5.576-.6,5.819-5.125,13.149-.044,18.132a2.325,2.325,0,0,0,3.321,0c2.1-2.362,4.993-4.163,7.479-6.069a1.022,1.022,0,0,0-1-1.778c-1.554.722-3.138,1.573-4.759,2.318,3.578-3.054,8.667-4.551,12.9-5.44a22.509,22.509,0,0,1,6.6-.364c1.642.812,3.321,1.565,5,2.3,2.134.928,4.289,1.77,6.46,2.568,7.53,6.357,11.123,16.7,9.554,26.807-.858,5.582-3.343,11.653-8.029,14.912-5.55,3.859-12.985,2.2-18.983,5.067-5.616,2.681-9.033,8.1-11.592,13.7l-1.067,2.334a97.183,97.183,0,0,1-8.062,14.9,73.75,73.75,0,0,1-13.366,14.54,67.824,67.824,0,0,1-7.706,5.528l-.733.45c-2.713,1.648-4.656,3.22-4.839,6.707a3.472,3.472,0,0,0,1.635,2.955c4.106,2.7,8.19-.676,11.607-3.031a84.912,84.912,0,0,0,10.478-8.507,83.458,83.458,0,0,0,15.7-20.549c3.145-5.8,4.934-13.969,9.906-18.466,3.035-2.743,7.325-2.765,11.115-3.267a26.53,26.53,0,0,0,10-3.03c12.765-7.346,16.373-25.129,13.344-38.87a41.723,41.723,0,0,0-2.119-6.746c4.751.82,10.089-4.268,8.161-9.4-.147-.387-.315-.751-.477-1.124a16.894,16.894,0,0,0,6.775-9.6,15.819,15.819,0,0,0,.374-6.533,10.455,10.455,0,0,0,3.578-4.292,12.905,12.905,0,0,0,6.093-5.6,10.463,10.463,0,0,0,.205-9.8q.3-.557.572-1.139c5.169-3.395,8.777-9.245,8.366-15.732a16.443,16.443,0,0,0-1.437-5.833c.066-.22.132-.449.191-.669a17.557,17.557,0,0,0,9.18-11.021,16.14,16.14,0,0,0-3.233-13.9c4.4-3.334,7.046-7.991,5.44-15.033a18.877,18.877,0,0,0-3.739-7.665,2.059,2.059,0,0,1,.037-.205l.412-.331c5.431-4.44,8.553-10.1,5.219-17.057a15.007,15.007,0,0,0-6.137-6.746l-.125-.41h0a19.2,19.2,0,0,0,1.166-13.073,15.369,15.369,0,0,0-6.474-8.917,19.41,19.41,0,0,0-.154-5.531,14.117,14.117,0,0,0-4.5-8.348c-.088-.441-.2-.874-.323-1.307a23.736,23.736,0,0,0-3.989-7.665,6.121,6.121,0,0,0-4.934-2.484,18.99,18.99,0,0,0-.286-4.968c-.99-5.18-4.172-10.05-8.887-12.26a11.029,11.029,0,0,0-5.939-.95,11.684,11.684,0,0,0-8.945-6.859,14.6,14.6,0,0,0-4.348-.008,24.677,24.677,0,0,0-2.361-.988c-.543-.2-1.092-.38-1.642-.561a17.216,17.216,0,0,0-7.149-5.439,13.056,13.056,0,0,0-9.612-.077l-.946-.205h0A11.423,11.423,0,0,0,234,12.516c-4.121-1.056-8.351.418-11.592,3.1a.127.127,0,0,1-.051-.008c-1.694-3.927-4.59-6.662-9.451-6.472a11.687,11.687,0,0,0-7.875,3.9c-1.173-.153-2.346-.289-3.527-.425a31.14,31.14,0,0,0-4.165-4.193c-2.508-2.082-5.77-1.914-7.618,1.017-.4.638-.777,1.284-1.151,1.929l-1.694-.122h0a10.593,10.593,0,0,0-8.439-4.823c-3.417-.145-5.851,1.588-7.706,4.01q-2.266-.057-4.546-.091A28.027,28.027,0,0,0,159.961,4.8a4.87,4.87,0,0,0-5.976.8A40,40,0,0,0,151.2,8.953,15.087,15.087,0,0,0,142.776,4.024ZM250.688,245.245c-3.424-2.021-8.029.167-11.343,1.884a27.188,27.188,0,0,0-10.522,9.192c-3.365,5.378,4.546,9.723,8.087,4.9,2.178-2.97,3.915-5.963,6.555-8.561,2.412-2.385,5.91-3.98,7.3-7.125A.208.208,0,0,0,250.688,245.245ZM248.283,114.7l-.064-.19c-.974-2.76,3.276-3.949,4.242-1.212a8.255,8.255,0,0,1-4.179,10.449,2.229,2.229,0,0,1-3.009-.817,2.34,2.34,0,0,1,.789-3.118,3.794,3.794,0,0,0,2.221-5.113Zm36.61-7.717c-2.127-1.945.994-5.159,3.111-3.222,1.975,1.806,3.44,4.26,3.06,7.082-.388,2.876-2.481,4.906-4.772,6.341-2.428,1.522-4.642-2.418-2.22-3.936l.272-.172c1.017-.654,2.206-1.553,2.379-2.84C286.9,108.87,285.788,107.8,284.893,106.985ZM272.819,72.671l-.151-.115c-2.285-1.689-.09-5.644,2.221-3.936,2.119,1.567,3.819,3.6,4,6.411a9.6,9.6,0,0,1-2.919,7.014c-1.95,2.135-5.057-1.092-3.111-3.222,1.9-2.077,2.267-4.343-.038-6.151Z" transform="translate(1.268 -2.536)" fill-rule="evenodd"/>
          </g>
          <g id="face_Cheeky" data-name="face/Cheeky" transform="translate(137.451 174.715)">
            <path id="_-Ink-3" data-name="ðŸ–-Ink" d="M62.093,137.442c-1.125-2.026-3.714-3.9-6.084-3.615-10.616,1.29-10.6,14.624-6.5,22.409A19.606,19.606,0,0,0,68.2,166.6a20.29,20.29,0,0,0,17.614-13.105c1.961-5.071,2.868-14.431-2.35-17.838a.27.27,0,0,0-.334.044c-2.5,3.015-2.6,7.542-4.79,10.9-2.037,3.122-5.2,5.7-8.909,6.1-2.769.3-5.569-.737-6.652-3.312a4.354,4.354,0,0,1-.3-3.108l.2-.833C63.369,142.525,63.681,140.3,62.093,137.442Zm-2.838-58.48c-5.537,3.487-13.973,11.617-8.017,20.261,7.011,7.622,17.105-1.117,22.08-5.069,4.612-3.063,9.795,4.815,5.515,8.391C42.889,130.116,28.3,79.874,56.455,74.863,59.554,74.31,60.706,77.883,59.255,78.962Zm58.468-23.909A7.129,7.129,0,0,0,104.7,56.817c-1.014,3.4.386,6.448.314,9.839a28.987,28.987,0,0,0,.968,8.831C107.91,81.813,113.4,86.281,119.9,86.1c6.476-.185,12.179-4.431,14.891-10.412,2.722-6,2.145-12.216.158-18.321a.411.411,0,0,0-.69-.188,52.734,52.734,0,0,0-5.847,8.212l-1.823,2.968c-1.393,2.235-3.418,5.09-6.02,4.91l-.39-.04c-.723-.064-.612.084-1.17-.937a8.583,8.583,0,0,1-.336-1.908l-.043-.188h0l.024-.1a12.8,12.8,0,0,0,.154-1.662l.009-.195C119,64.1,120.131,58.8,117.723,55.053ZM31.577,58.57c.609-6.756-8.559-8.256-11.607-3.257-1.59,2.607-2.053,5.882-2.4,8.984L17.4,65.77c-.361,3.187-.5,6.5.831,9.474a11.448,11.448,0,0,0,11.609,6.765,14.1,14.1,0,0,0,11.275-7.5c2.02-3.833,4.028-11.317,1.575-15.315a.41.41,0,0,0-.647-.087c-2.318,2.132-2.7,6.022-4.074,8.8-1.422,2.865-3.578,5.658-6.846,6.093C28,74.415,26.8,72.646,27.6,69.558,28.63,65.571,31.19,62.859,31.577,58.57Zm83.67-43.684-1.5-.595c-5.137-2.01-12.19-4.334-16.366-.007a8.218,8.218,0,0,0-1.228,9.856c2.228,3.945,6.225,4.042,10.085,4.623a51.85,51.85,0,0,1,12.941,3.709,83.821,83.821,0,0,1,13.062,7.344c3.978,2.67,7.943,7.034,12.705,7.857a.388.388,0,0,0,.466-.274c1.081-4.824-1.924-9.571-4.606-13.334a54.333,54.333,0,0,0-11.572-11.649A58.662,58.662,0,0,0,115.247,14.886ZM21.933,32.036l-.458-.083c-3.115-.537-5.938-.414-8.286,2.142a6.936,6.936,0,0,0-1.628,7.055c.788,2.378,2.551,4.795,5.109,5.293,8.636,1.683,18.2,1.405,26.882.131A88.389,88.389,0,0,0,55.4,44.152l1.78-.534c3.229-.956,6.926-1.954,9.272-4.415a1.574,1.574,0,0,0-.652-2.559c-4.093-1.661-9.7-.777-14.067-.907-5.077-.15-10.162-.545-15.214-1.088C31.58,34.117,26.8,32.961,21.933,32.036Z" transform="translate(-11.197 -11.836)" fill-rule="evenodd"/>
          </g>
          <g id="facial-hair_Full" data-name="facial-hair/Full" transform="translate(132.581 247.639)">
            <path id="_-Ink-4" data-name="ðŸ–-Ink" d="M118.249,72.312c-5.936-14.408-18.892-25-33.81-28.869-10.954-2.836-22.45-2.745-33.617-1.62-5.851.586-12.126,1.065-17.64,3.316a26.088,26.088,0,0,0-11.43,9.825,56.573,56.573,0,0,0-7.41,16.775q-.349,1.265-.656,2.547c.713,4.475,2.227,8.284,6.228,11.1,3.9,2.747,8.563,3.871,13.207,4.271.455-.227.9-.459,1.3-.7,7.237-4.292,12.33-14.435,21.464-13.062C64.035,77.12,69.4,87.746,74.248,93.977c15.56,1.878,31.108-2.966,43.769-12.184a27.681,27.681,0,0,0,.231-9.481M3.11,61.382A63.212,63.212,0,0,1,7.781,50.956,57.956,57.956,0,0,1,34.552,26.363c26.485-11.749,60.754-3.467,82.142,15.8,7.306,6.587,14.694,16.267,16.928,26.679a3.7,3.7,0,0,1,1.815,1C150.89,59.767,166.8,50.069,179.256,36.1A90.8,90.8,0,0,0,198.441.729,1,1,0,0,1,200.4,1l-.044.843c.161-.517.923-.251.981.251C203.405,18.135,206,35.139,203.61,51.26c-1.428,9.62-5.646,16.662-11.284,24.267a237.918,237.918,0,0,1-19.873,23c-4.437,4.615-9.072,9.938-14.506,13.322-6.319,3.931-13.488,6.921-20.232,9.954-6.861,3.095-13.825,5.954-20.92,8.433a190.025,190.025,0,0,1-43.758,9.916c-11.943,1.2-25.592,2.51-37.037-2.144C27.229,134.445,20.149,128,14.532,120.24A85.978,85.978,0,0,1,.913,92.02c-2.777-10.541,1.612-28.939,2.2-30.638" transform="translate(0 0)" fill-rule="evenodd"/>
          </g>
        </g>
      </g>
    </g>
  </g>
</svg>
