<svg xmlns="http://www.w3.org/2000/svg" width="94.149" height="94.149" viewBox="0 0 94.149 94.149">
  <g id="vuesax_outline_safe-home" data-name="vuesax/outline/safe-home" transform="translate(-172 -764)">
    <g id="safe-home" transform="translate(172 764)">
      <path id="Vector" d="M20.36,45.034a7.293,7.293,0,0,1-1.648-.2A25.365,25.365,0,0,1,5.531,36.09,24.51,24.51,0,0,1,0,20.791V12.2A7.629,7.629,0,0,1,4.511,5.414L15.456.941a13.445,13.445,0,0,1,9.886,0L36.326,5.414A7.667,7.667,0,0,1,40.876,12.2v8.591c0,10.945-7.846,21.066-18.634,24.047A10.976,10.976,0,0,1,20.36,45.034ZM20.4,5.806a6.918,6.918,0,0,0-2.785.549L6.747,10.827A1.849,1.849,0,0,0,5.884,12.2v8.591a18.68,18.68,0,0,0,4.237,11.651,19.408,19.408,0,0,0,10.043,6.747.913.913,0,0,0,.549-.039c8.042-2.236,14.2-10.121,14.2-18.359V12.2a1.855,1.855,0,0,0-.9-1.373L23.106,6.355A7.1,7.1,0,0,0,20.4,5.806Z" transform="translate(52.33 48.134)" fill="#f80c40"/>
      <path id="Vector-2" data-name="Vector" d="M55.283,78.948H19.349a14.8,14.8,0,0,1-14.24-12L.166,37.326A15.657,15.657,0,0,1,5.345,23.675L31.157,3.04A14.833,14.833,0,0,1,49.2,3.08l25.812,20.6a15.552,15.552,0,0,1,5.178,13.651l-1.687,10.16a3.008,3.008,0,0,1-1.491,2.079,2.917,2.917,0,0,1-2.55.157l-3.923-1.609a7.384,7.384,0,0,0-5.492,0L54.184,52.586a1.849,1.849,0,0,0-.863,1.373V62.55A18.68,18.68,0,0,0,57.558,74.2a2.874,2.874,0,0,1,.353,3.1A2.929,2.929,0,0,1,55.283,78.948ZM40.14,5.865a8.573,8.573,0,0,0-5.3,1.726L9.032,28.225a9.907,9.907,0,0,0-3.06,8.081l4.943,29.618a8.987,8.987,0,0,0,8.434,7.1h30.6a23.845,23.845,0,0,1-2.511-10.552V53.88a7.629,7.629,0,0,1,4.511-6.786l10.945-4.472a13.445,13.445,0,0,1,9.886,0l.549.236,1.1-6.512a9.907,9.907,0,0,0-3.06-8.081L45.554,7.669A8.576,8.576,0,0,0,40.14,5.865Z" transform="translate(4.894 6.375)" fill="#f80c40"/>
      <path id="Vector-3" data-name="Vector" d="M0,0H94.149V94.149H0Z" fill="none" opacity="0"/>
    </g>
  </g>
</svg>
