<svg xmlns="http://www.w3.org/2000/svg" width="93.159" height="93.159" viewBox="0 0 93.159 93.159">
  <g id="vuesax_outline_lamp-charge" data-name="vuesax/outline/lamp-charge" transform="translate(-556 -188)">
    <g id="lamp-charge" transform="translate(556 188)">
      <path id="Vector" d="M7.461,26.031a2.664,2.664,0,0,1-1.436-.388,2.928,2.928,0,0,1-1.087-3.959l3.3-5.745H4.977a4.92,4.92,0,0,1-4.386-2.29A4.875,4.875,0,0,1,.785,8.681l4.153-7.22A2.9,2.9,0,1,1,9.984,4.333l-3.3,5.784H9.946a4.92,4.92,0,0,1,4.386,2.29,4.875,4.875,0,0,1-.194,4.968L9.984,24.6A2.9,2.9,0,0,1,7.461,26.031Z" transform="translate(39.118 27.729)" fill="#f80c40"/>
      <path id="Vector-2" data-name="Vector" d="M44.25,71.743H22.863c-1.708,0-3.882-.194-5.318-1.669a5.62,5.62,0,0,1-1.32-4.425V62.194C6.443,55.673,0,44.338,0,33.548A33.6,33.6,0,0,1,41.145.826,33.15,33.15,0,0,1,63.581,18.176C72,35.139,63.891,53.5,50.927,62.233v2.911a6.193,6.193,0,0,1-1.514,4.813A7.119,7.119,0,0,1,44.25,71.743ZM22.009,65.881c.194,0,.466.039.815.039H44.25a3.533,3.533,0,0,0,.815-.078V60.564a2.917,2.917,0,0,1,1.4-2.484C57.952,51.131,65.56,35.256,58.3,20.7A27.212,27.212,0,0,0,39.825,6.454a28,28,0,0,0-23.717,5.434A27.662,27.662,0,0,0,5.745,33.548c0,10.791,7.453,20.107,14.828,24.571a2.879,2.879,0,0,1,1.4,2.484v5.24C22.009,65.843,22.009,65.843,22.009,65.881Z" transform="translate(13.081 4.919)" fill="#f80c40"/>
      <path id="Vector-3" data-name="Vector" d="M30.125,7.754a2.955,2.955,0,0,1-.815-.116,46.217,46.217,0,0,0-25.58,0A2.948,2.948,0,0,1,.12,5.619a2.917,2.917,0,0,1,2.018-3.61,52.485,52.485,0,0,1,28.763,0,2.931,2.931,0,0,1,2.018,3.61A2.856,2.856,0,0,1,30.125,7.754Z" transform="translate(30.04 80.553)" fill="#f80c40"/>
      <path id="Vector-4" data-name="Vector" d="M0,0H93.159V93.159H0Z" fill="none" opacity="0"/>
    </g>
  </g>
</svg>
