<svg xmlns="http://www.w3.org/2000/svg" width="62.77" height="62.77" viewBox="0 0 62.77 62.77">
  <g id="vuesax_outline_send" data-name="vuesax/outline/send" transform="translate(-236 -316)">
    <g id="send" transform="translate(236 316)">
      <path id="Vector" d="M8.152,51.019a8.035,8.035,0,0,1-5.963-2.171c-2.3-2.3-3.923-7.192,1.255-17.576L5.72,26.748a3.609,3.609,0,0,0,0-2.458L3.444,19.765C-1.76,9.381-.113,4.464,2.189,2.189,4.464-.113,9.381-1.76,19.739,3.444L42.126,14.638c5.571,2.772,8.631,6.643,8.631,10.88s-3.06,8.108-8.6,10.88L19.765,47.593C14.691,50.13,10.925,51.019,8.152,51.019Zm0-47.078a4.411,4.411,0,0,0-3.191,1.02C3.052,6.844,3.811,11.735,6.949,17.986l2.275,4.551a7.4,7.4,0,0,1,0,5.963L6.949,33.025C3.811,39.3,3.052,44.167,4.961,46.05c1.883,1.909,6.774,1.151,13.051-1.988L40.4,32.868c4.106-2.04,6.434-4.734,6.434-7.375s-2.354-5.335-6.46-7.375L17.986,6.949C14.011,4.961,10.585,3.941,8.152,3.941Z" transform="translate(5.997 5.866)" fill="#edf7ff"/>
      <path id="Vector-2" data-name="Vector" d="M16.085,3.923H1.962A1.976,1.976,0,0,1,0,1.962,1.976,1.976,0,0,1,1.962,0H16.085a1.976,1.976,0,0,1,1.962,1.962A1.976,1.976,0,0,1,16.085,3.923Z" transform="translate(12.266 29.423)" fill="#edf7ff"/>
      <path id="Vector-3" data-name="Vector" d="M0,0H62.77V62.77H0Z" fill="none" opacity="0"/>
    </g>
  </g>
</svg>
