<?xml version="1.0" encoding="utf-8"?>
<svg width="24px" height="24px" viewBox="0 0 24 24" version="1.1" xmlns:xlink="http://www.w3.org/1999/xlink" xmlns="http://www.w3.org/2000/svg">
  <g id="vuesaxtwotoneprofile" fill-opacity="1">
    <path d="M24 0L24 0L24 24L0 24L0 0L24 0Z" id="vuesaxtwotoneprofile" fill="none" stroke="none" />
    <g id="vuesaxtwotoneprofile">
      <g id="profile">
        <path d="M11.8305 10.87C9.45055 10.79 7.56055 8.84 7.56055 6.44C7.56055 3.99 9.54055 2 12.0005 2C14.4505 2 16.4405 3.99 16.4405 6.44C16.4305 8.84 14.5405 10.79 12.1605 10.87C12.0605 10.86 11.9405 10.86 11.8305 10.87Z" id="Vector" fill="none" stroke="#F5F5F5" stroke-opacity="0.4" stroke-width="1.5" stroke-linecap="round" stroke-linejoin="round" />
        <path d="M7.1607 20.43C9.9107 22.27 14.4207 22.27 17.1707 20.43C19.5907 18.81 19.5907 16.17 17.1707 14.56C14.4307 12.73 9.9207 12.73 7.1607 14.56C4.7407 16.18 4.7407 18.82 7.1607 20.43Z" id="Vector" fill="none" stroke="#F5F5F5" stroke-width="1.5" stroke-linecap="round" stroke-linejoin="round" />
        <path d="M0 24L1.90735e-06 -1.90735e-06L24 0L24 24L0 24Z" id="Vector" fill="none" fill-rule="evenodd" stroke="none" />
      </g>
    </g>
  </g>
</svg>