<?xml version="1.0" encoding="utf-8"?>
<svg width="24px" height="24px" viewBox="0 0 24 24" version="1.1" xmlns:xlink="http://www.w3.org/1999/xlink" xmlns="http://www.w3.org/2000/svg">
  <g id="vuesaxtwotonehome-trend-up" fill-opacity="1">
    <path d="M24 0L24 0L24 24L0 24L0 0L24 0Z" id="vuesaxtwotonehome-trend-up" fill="none" stroke="none" />
    <g id="vuesaxtwotonehome-trend-up">
      <g id="home-trend-up">
        <path d="M3.63 7.04016C2.73 7.74016 2 9.23016 2 10.3602L2 17.7702C2 20.0902 3.89 21.9902 6.21 21.9902L17.79 21.9902C20.11 21.9902 22 20.0902 22 17.7802L22 10.5002C22 9.29016 21.19 7.74016 20.2 7.05016L14.02 2.72016C12.62 1.74016 10.37 1.79016 9.02 2.84016L3.63 7.04016Z" id="Vector" fill="none" stroke="#E6AC7D" stroke-width="1.5" stroke-linecap="round" stroke-linejoin="round" />
        <g id="Group-703" transform="translate(7.5 11.5)" opacity="0.4">
          <path d="M9 0L4.8 4.2L3.2 1.8L0 5" id="Vector" fill="none" stroke="#E6AC7D" stroke-width="1.5" stroke-linecap="round" stroke-linejoin="round" />
          <path d="M7 0L9 0L9 2" id="Vector" fill="none" stroke="#E6AC7D" stroke-width="1.5" stroke-linecap="round" stroke-linejoin="round" />
        </g>
        <path d="M24 0L24 24L0 24L0 0L24 0Z" id="Vector" fill="none" fill-rule="evenodd" stroke="none" />
      </g>
    </g>
  </g>
</svg>