<?xml version="1.0" encoding="utf-8"?>
<svg width="31.946777px" height="31.31836px" viewBox="0 0 31.946777 31.31836" version="1.1" xmlns:xlink="http://www.w3.org/1999/xlink" xmlns="http://www.w3.org/2000/svg">
  <path d="M31.672 23.6914C32.1743 24.8652 32.0108 26.1533 30.9883 27.1406C30.9875 27.1416 30.9866 27.1416 30.9858 27.1426C30.1354 27.9541 29.1554 28.0215 28.2129 27.5518C27.7289 27.3105 27.3341 26.9766 27.0388 26.6475L9.40387 8.38574C9.02039 7.98828 9.03125 7.35547 9.42853 6.97168L10.1472 6.27832C10.3597 6.07324 10.6399 5.98145 10.9133 6.00098C10.9936 5.79492 11.0978 5.55566 11.2297 5.29102C12.4554 2.8291 14.6953 0.836914 18.264 0.0195312C18.3691 0.00390625 18.5195 -0.00683594 18.6937 0.00585938C19.1443 0.0371094 19.5201 0.200195 19.7084 0.600586C19.9463 1.10645 19.7347 1.75293 19.1041 2.60547C19.0757 2.67676 19.0437 2.80664 19.0412 2.97168C19.0245 4.04102 20.2151 5.00195 23.5289 5.49023C23.5502 5.49121 23.5718 5.49316 23.5936 5.49609C23.9144 5.54395 24.2106 5.58203 24.5511 5.61914L24.5542 5.61914C24.5687 5.62207 24.5848 5.62598 24.6005 5.62891C24.7778 5.66406 25.0319 5.73047 25.3221 5.83398C25.7097 5.97168 26.0604 6.14258 26.3526 6.35645C26.7051 6.61426 26.9573 6.92285 27.0718 7.28906C27.0983 7.37305 27.1174 7.46094 27.1287 7.55078C27.166 7.84961 27.3128 8.61426 27.5156 9.60059C27.5215 9.62891 27.5273 9.6582 27.5333 9.68652C27.5571 9.80176 27.5815 9.91992 27.6067 10.041C27.6074 10.0439 27.608 10.0469 27.6086 10.0498C27.6094 10.0537 27.6103 10.0576 27.6111 10.0615C27.6476 10.2373 27.6855 10.418 27.7245 10.6025C27.73 10.6279 27.7354 10.6543 27.741 10.6797L28.0945 10.6865C28.3705 10.6914 28.5903 10.9189 28.5854 11.1943C28.5806 11.4707 28.3531 11.6904 28.0771 11.6855L27.9554 11.6836C28.0353 12.0537 28.1174 12.4316 28.2001 12.8086L28.5765 12.8154C28.8524 12.8203 29.0722 13.0479 29.0674 13.3232C29.0626 13.5996 28.835 13.8193 28.559 13.8145L28.4221 13.8115C28.5368 14.3271 28.6497 14.8271 28.7563 15.292L29.0522 15.2969C29.3282 15.3018 29.548 15.5293 29.5432 15.8057C29.5383 16.082 29.3107 16.3018 29.0348 16.2969L28.9895 16.2959C29.2178 17.2627 29.3885 17.9316 29.437 18.0078L29.4376 18.0088C29.443 18.0166 29.4487 18.0264 29.4546 18.0371C29.4591 18.0439 29.4638 18.0527 29.4686 18.0615L29.4697 18.0635C29.5487 18.208 29.6609 18.4756 29.814 18.8779C30.004 19.374 30.2512 20.0615 30.5533 20.9248C30.8008 21.6309 31.0314 22.1963 31.5631 23.4375C31.5868 23.4922 31.5868 23.4922 31.6105 23.5479C31.6412 23.6191 31.6412 23.6191 31.672 23.6914ZM18.4689 1C18.4569 1.00098 18.4498 1.00098 18.4495 1.00098C16.9335 1.34863 15.686 1.92969 14.6751 2.67871C15.108 2.90039 15.5044 3.19336 15.8495 3.55078C17.575 5.33691 17.5252 8.18457 15.7385 9.91016C15.6185 10.0254 15.4914 10.1338 15.3582 10.2354L30.6179 26.0371C31.0189 25.4385 31.0389 24.752 30.7531 24.084C30.7224 24.0127 30.7224 24.0127 30.6917 23.9404C30.6681 23.8857 30.6681 23.8857 30.6444 23.8301C30.1038 22.5684 29.8674 21.9893 29.61 21.2549C29.4933 20.9209 29.3821 20.6074 29.2788 20.3193L29.2267 20.3311C27.5334 20.6865 25.8722 19.6025 25.5162 17.9102L23.103 6.43359C19.5339 5.84766 18.0166 4.57715 18.0418 2.95605C18.0474 2.59473 18.1321 2.30859 18.226 2.12305L18.272 2.0498C18.7265 1.44336 18.8411 1.10449 18.804 1.02637C18.8061 1.03027 18.7968 1.02832 18.7757 1.02441C18.7472 1.01855 18.6971 1.00781 18.6245 1.00293C18.5594 0.998047 18.4988 1 18.4689 1ZM11.9332 6.15137C11.8779 6.28125 11.8287 6.4082 11.7844 6.5332L11.7841 6.53418L14.6582 9.51074C14.7963 9.41309 14.9249 9.30664 15.0443 9.19141C16.4339 7.84863 16.4725 5.63477 15.1306 4.24512C14.7662 3.86719 14.3287 3.58398 13.8452 3.40332C13.0974 4.12109 12.5321 4.91895 12.1248 5.73633C12.1176 5.75098 12.1109 5.76465 12.1039 5.7793C12.0821 5.82324 12.0609 5.86719 12.0405 5.91113C12.0311 5.93066 12.0217 5.95117 12.0126 5.97168C11.9863 6.0293 11.9608 6.08594 11.9368 6.14258C11.9355 6.14551 11.9344 6.14844 11.9332 6.15137ZM26.4943 17.7041C26.7304 18.8271 27.8098 19.5557 28.9312 19.3691C28.761 18.918 28.639 18.6191 28.5977 18.5508C28.597 18.5498 28.5961 18.5479 28.5955 18.5469C28.5908 18.54 28.5857 18.5303 28.5803 18.5186C28.4814 18.3135 28.252 17.4453 27.9709 16.2783L26.9367 16.2598C26.6608 16.2549 26.441 16.0273 26.4458 15.752C26.4506 15.4756 26.6782 15.2559 26.9542 15.2607L27.7335 15.2744C27.6234 14.8018 27.5092 14.3018 27.3949 13.7939L26.6271 13.7803C26.3511 13.7754 26.1313 13.5479 26.1361 13.2725C26.1409 12.9961 26.3685 12.7764 26.6445 12.7812L27.1714 12.791C27.0878 12.4111 27.0055 12.0342 26.926 11.665L25.9572 11.6484C25.6812 11.6436 25.4614 11.416 25.4662 11.1396C25.4711 10.8643 25.6987 10.6445 25.9746 10.6494L26.7122 10.6621C26.6479 10.3564 26.587 10.0635 26.5303 9.78613C26.3263 8.78906 26.1786 8.00879 26.1368 7.6748C26.1315 7.63184 26.1198 7.58887 26.1018 7.5459C26.0475 7.41797 25.9357 7.29004 25.7629 7.16309C25.5593 7.01465 25.2913 6.88379 24.9874 6.77539C24.8351 6.72168 24.6844 6.67676 24.5427 6.6416C24.51 6.63281 24.481 6.62598 24.4584 6.62109C24.4237 6.6123 24.4043 6.60742 24.4103 6.60742C24.4075 6.60742 24.4047 6.60742 24.402 6.60645C24.3187 6.59766 24.2365 6.58887 24.155 6.5791L26.4943 17.7041ZM27.7924 25.9922C28.0004 26.2227 28.3063 26.4824 28.6584 26.6572C29.0945 26.874 29.4957 26.9121 29.8848 26.7168L14.222 10.498L10.8593 7.01562L10.8592 7.01562L10.8415 6.99707L10.1229 7.69141C10.1229 7.69141 27.779 25.9766 27.7924 25.9922ZM23.2198 30.9971C24.3756 31.54 25.6681 31.4209 26.6906 30.4336C26.6915 30.4326 26.6921 30.4316 26.6929 30.4316C27.5339 29.6094 27.635 28.6328 27.1988 27.6748C26.9748 27.1826 26.6547 26.7764 26.3359 26.4697L8.70026 8.20801C8.31683 7.81055 7.68433 7.7998 7.28705 8.18359L6.56842 8.87695C6.35583 9.08301 6.25507 9.35938 6.26508 9.63281C6.05548 9.70605 5.81293 9.80176 5.5437 9.9248C3.04059 11.0635 0.971802 13.2324 0.0299683 16.7705C0.0106201 16.875 -0.0045166 17.0254 0.00146484 17.2002C0.0170898 17.6514 0.167053 18.0322 0.560852 18.2344C1.05823 18.4902 1.71124 18.3008 2.58533 17.7002C2.6579 17.6748 2.78876 17.6475 2.95349 17.6504C4.02301 17.6709 4.94141 18.8945 5.31439 22.2236C5.31403 22.2441 5.315 22.2666 5.3175 22.2881C5.3537 22.6104 5.38147 22.9082 5.40704 23.249L5.40729 23.2529C5.40955 23.2676 5.41229 23.2832 5.41492 23.2988C5.44452 23.4775 5.50183 23.7334 5.59473 24.0273C5.71875 24.4199 5.8775 24.7764 6.08075 25.0752C6.32605 25.4365 6.62646 25.6992 6.98767 25.8271C7.07117 25.8564 7.15784 25.8779 7.2478 25.8926C7.54535 25.9404 8.30383 26.1143 9.28265 26.3506C9.3111 26.3584 9.33948 26.3652 9.36823 26.3721C9.4826 26.3994 9.59955 26.4277 9.71924 26.457C9.72229 26.458 9.72534 26.459 9.72839 26.46C9.73236 26.4609 9.73639 26.4619 9.7403 26.4629C9.91412 26.5049 10.0933 26.5498 10.2762 26.5947C10.302 26.6016 10.3276 26.6074 10.3535 26.6143L10.3474 26.9678C10.3425 27.2432 10.5623 27.4707 10.8383 27.4756C11.1143 27.4805 11.3419 27.2607 11.3467 26.9854L11.3488 26.8633C11.7164 26.9561 12.0908 27.0508 12.4647 27.1475L12.4581 27.5234C12.4533 27.7998 12.6731 28.0273 12.949 28.0322C13.225 28.0371 13.4526 27.8164 13.4575 27.541L13.4598 27.4043C13.9703 27.5361 14.4662 27.667 14.9274 27.79L14.9222 28.0859C14.9174 28.3613 15.1372 28.5889 15.4132 28.5938C15.6891 28.5986 15.9167 28.3789 15.9216 28.1025L15.9224 28.0576C16.881 28.3193 17.5434 28.5137 17.6172 28.5645L17.6183 28.5654C17.6266 28.5713 17.6359 28.5771 17.6459 28.583C17.6534 28.5879 17.6618 28.5928 17.6702 28.5977L17.6723 28.5996C17.814 28.6836 18.0776 28.8047 18.4737 28.9717C18.9631 29.1787 19.6419 29.4502 20.4936 29.7822C21.191 30.0537 21.7476 30.3047 22.9695 30.8789C23.0239 30.9043 23.0239 30.9043 23.0782 30.9297C23.149 30.9639 23.149 30.9639 23.2198 30.9971ZM25.6543 27.2002C25.8781 27.416 26.1261 27.7305 26.2891 28.0889C26.4909 28.5322 26.5143 28.9346 26.306 29.3164L10.6432 13.0967L7.28046 9.61426L7.28033 9.61426L7.26263 9.59668L7.98126 8.90234C7.98126 8.90234 25.6396 27.1855 25.6543 27.2002ZM22.3958 13.207C21.7324 13.8477 20.5157 13.4189 19.5817 12.4512C18.6476 11.4844 18.261 10.2529 18.9244 9.6123C19.5878 8.97168 20.8044 9.40137 21.7385 10.3682C22.6726 11.3359 23.0593 12.5664 22.3958 13.207ZM21.0196 11.0625C20.6977 10.7295 20.3358 10.4844 20.0204 10.373C19.7878 10.291 19.6509 10.2998 19.6187 10.3311C19.5864 10.3623 19.5726 10.499 19.6465 10.7344C19.7468 11.0537 19.9787 11.4238 20.3006 11.7568C20.6225 12.0898 20.9845 12.335 21.2999 12.4463C21.5325 12.5283 21.6693 12.5195 21.7015 12.4883C21.7338 12.457 21.7476 12.3203 21.6736 12.085C21.5734 11.7666 21.3415 11.3955 21.0196 11.0625ZM6.37903 10.6582C6.51105 10.6074 6.63977 10.5625 6.76642 10.5225L6.76733 10.5225L9.64148 13.498C9.5387 13.6328 9.42792 13.7578 9.30859 13.873C7.91895 15.2148 5.70422 15.1768 4.36224 13.7871C3.99786 13.4092 3.72949 12.9619 3.56586 12.4727C4.31 11.75 5.12677 11.2129 5.95789 10.835C5.97241 10.8281 5.98669 10.8223 6.0011 10.8154C6.04626 10.7949 6.09106 10.7754 6.13531 10.7568C6.15582 10.748 6.17627 10.7393 6.19653 10.7305C6.25513 10.707 6.31323 10.6826 6.37036 10.6611C6.37329 10.6602 6.3761 10.6592 6.37903 10.6582ZM1.00348 17.0098C1.00421 16.998 1.00464 16.9902 1.00427 16.9902C1.40497 15.4873 2.02942 14.2607 2.81293 13.2764C3.01971 13.7168 3.2981 14.124 3.64319 14.4805C5.36865 16.2676 8.21613 16.3174 10.0028 14.5918C10.1229 14.4756 10.2354 14.3525 10.3415 14.2236L25.6011 30.0254C24.9891 30.4053 24.3022 30.4014 23.6446 30.0918C23.574 30.0586 23.574 30.0586 23.5034 30.0254C23.449 30 23.449 30 23.3947 29.9746C22.1524 29.3906 21.582 29.1338 20.8565 28.8506C20.5274 28.7227 20.2177 28.6006 19.9335 28.4873L19.9464 28.4355C20.3609 26.7559 19.3358 25.0576 17.6564 24.6426L6.27155 21.8311C5.81012 18.2432 4.59326 16.6826 2.97284 16.6514C2.61133 16.6445 2.32269 16.7188 2.13422 16.8057L2.05865 16.8496C1.43732 17.2822 1.09485 17.3857 1.01733 17.3457C1.02185 17.3477 1.02026 17.3389 1.01654 17.3174C1.0116 17.2881 1.00293 17.2383 1.00043 17.165C0.998169 17.0996 1.00171 17.04 1.00348 17.0098ZM13.0657 21.3604C13.7291 20.7197 13.3425 19.4883 12.4084 18.5215C11.4743 17.5537 10.2576 17.125 9.59424 17.7656C8.93085 18.4062 9.31744 19.6367 10.2515 20.6045C11.1856 21.5713 12.4022 22.001 13.0657 21.3604ZM10.9705 19.9102C10.6486 19.5771 10.4166 19.2061 10.3164 18.8877C10.2424 18.6523 10.2563 18.5156 10.2885 18.4844C10.3207 18.4531 10.4576 18.4443 10.6902 18.5264C11.0056 18.6377 11.3676 18.8828 11.6895 19.2158C12.0114 19.5488 12.2433 19.9189 12.3435 20.2383C12.4175 20.4736 12.4037 20.6104 12.3714 20.6416C12.3392 20.6729 12.2023 20.6816 11.9697 20.5996C11.6543 20.4883 11.2924 20.2432 10.9705 19.9102ZM17.4169 25.6133C18.5306 25.8887 19.2218 26.9922 18.9962 28.1064C18.5509 27.9209 18.2562 27.7881 18.1896 27.7451C18.1885 27.7441 18.1869 27.7432 18.1858 27.7422C18.1788 27.7373 18.1696 27.7324 18.1583 27.7266C17.9569 27.6201 17.0965 27.3604 15.9402 27.0391L15.9583 26.0049C15.963 25.7285 15.7433 25.501 15.4673 25.4961C15.1913 25.4922 14.9637 25.7119 14.9589 25.9873L14.9453 26.7666C14.4765 26.6406 13.9815 26.5088 13.4778 26.377L13.4912 25.6094C13.496 25.333 13.2762 25.1055 13.0002 25.1006C12.7243 25.0957 12.4967 25.3154 12.4919 25.5918L12.4827 26.1182C12.1068 26.0215 11.7326 25.9258 11.3668 25.834L11.3837 24.8652C11.3885 24.5889 11.1687 24.3613 10.8927 24.3564C10.6168 24.3516 10.3892 24.5713 10.3843 24.8477L10.3715 25.585C10.0685 25.5107 9.77747 25.4395 9.50281 25.373C8.51361 25.1338 7.73895 24.959 7.40594 24.9062C7.36328 24.8994 7.32092 24.8857 7.27881 24.8662C7.15222 24.8076 7.02832 24.6914 6.90802 24.5146C6.76624 24.3057 6.6449 24.0332 6.54761 23.7256C6.4989 23.5713 6.45947 23.4199 6.42883 23.2764C6.42175 23.2441 6.41583 23.2148 6.41119 23.1914C6.40411 23.1572 6.40015 23.1367 6.40009 23.1436C6.39984 23.1406 6.3996 23.1377 6.39941 23.1348C6.39362 23.0518 6.38721 22.9688 6.38068 22.8867L17.4169 25.6133Z" id="Group-4-Union" fill="#E6AC7D" fill-rule="evenodd" stroke="none" />
</svg>