<?xml version="1.0" encoding="utf-8"?>
<svg width="22px" height="22px" viewBox="0 0 22 22" version="1.1" xmlns:xlink="http://www.w3.org/1999/xlink" xmlns="http://www.w3.org/2000/svg">
  <g id="vuesaxtwotoneelement-equal" fill-opacity="1">
    <path d="M22 0L22 0L22 22L0 22L0 0L22 0Z" id="vuesaxtwotoneelement-equal" fill="none" stroke="none" />
    <g id="vuesaxtwotoneelement-equal">
      <g id="element-equal">
        <path d="M20.1667 3.8775C20.1667 2.42 19.58 1.83333 18.1225 1.83333L14.4192 1.83333C12.9617 1.83333 12.375 2.42 12.375 3.8775L12.375 7.58083C12.375 9.03833 12.9617 9.625 14.4192 9.625L18.1225 9.625C19.58 9.625 20.1667 9.03833 20.1667 7.58083L20.1667 3.8775Z" id="Vector" fill="none" stroke="#E6AC7D" stroke-width="1.5" stroke-linecap="round" stroke-linejoin="round" />
        <path d="M9.625 3.64833C9.625 2.35583 9.03833 1.83333 7.58083 1.83333L3.8775 1.83333C2.42 1.83333 1.83333 2.35583 1.83333 3.64833L1.83333 7.80083C1.83333 9.1025 2.42 9.61583 3.8775 9.61583L7.58083 9.61583C9.03833 9.625 9.625 9.1025 9.625 7.81L9.625 3.64833Z" id="Vector" fill="none" stroke="#E6AC7D" stroke-width="1.5" stroke-linecap="round" stroke-linejoin="round" />
        <path d="M9.625 14.4192C9.625 12.9617 9.03833 12.375 7.58083 12.375L3.8775 12.375C2.42 12.375 1.83333 12.9617 1.83333 14.4192L1.83333 18.1225C1.83333 19.58 2.42 20.1667 3.8775 20.1667L7.58083 20.1667C9.03833 20.1667 9.625 19.58 9.625 18.1225L9.625 14.4192Z" id="Vector" fill="none" stroke="#E6AC7D" stroke-width="1.5" stroke-linecap="round" stroke-linejoin="round" />
        <path d="M13.75 14.2083L19.25 14.2083" id="Vector" fill="none" fill-rule="evenodd" stroke="#E6AC7D" stroke-opacity="0.4" stroke-width="1.5" stroke-linecap="round" />
        <path d="M13.75 17.875L19.25 17.875" id="Vector" fill="none" fill-rule="evenodd" stroke="#E6AC7D" stroke-opacity="0.4" stroke-width="1.5" stroke-linecap="round" />
        <path d="M22 0L22 22L0 22L0 0L22 0Z" id="Vector" fill="none" fill-rule="evenodd" stroke="none" />
      </g>
    </g>
  </g>
</svg>