<?xml version="1.0" encoding="utf-8"?>
<svg width="24px" height="24px" viewBox="0 0 24 24" version="1.1" xmlns:xlink="http://www.w3.org/1999/xlink" xmlns="http://www.w3.org/2000/svg">
  <g id="vuesaxtwotonereceive-square" fill-opacity="1">
    <path d="M24 0L24 0L24 24L0 24L0 0L24 0Z" id="vuesaxtwotonereceive-square" fill="none" stroke="none" />
    <g id="vuesaxtwotonereceive-square">
      <g id="receive-square">
        <path d="M15 22C20 22 22 20 22 15L22 9C22 4 20 2 15 2L9 2C4 2 2 4 2 9L2 15C2 20 4 22 9 22L15 22Z" id="Vector" fill="none" stroke="#000308" stroke-width="1.5" stroke-linecap="round" stroke-linejoin="round" />
        <g id="Group-65" transform="translate(6 6.5097656)" opacity="0.4">
          <path d="M3 5L6 8L9 5" id="Vector" fill="none" stroke="#000308" stroke-width="1.5" stroke-linecap="round" stroke-linejoin="round" />
          <path d="M6 8L6 0" id="Vector" fill="none" fill-rule="evenodd" stroke="#000308" stroke-width="1.5" stroke-linecap="round" stroke-linejoin="round" />
          <path d="M0 10C3.89 11.3 8.11 11.3 12 10" id="Vector" fill="none" stroke="#000308" stroke-width="1.5" stroke-linecap="round" stroke-linejoin="round" />
        </g>
        <path d="M24 0L24 24L0 24L0 0L24 0Z" id="Vector" fill="none" fill-rule="evenodd" stroke="none" />
      </g>
    </g>
  </g>
</svg>