<svg id="vuesax_outline_logout" data-name="vuesax/outline/logout" xmlns="http://www.w3.org/2000/svg" width="24" height="24" viewBox="0 0 24 24">
  <g id="logout">
    <path id="Vector" d="M7.01,20.54h.13c4.44,0,6.58-1.75,6.95-5.67a.751.751,0,0,0-.68-.82.765.765,0,0,0-.82.68c-.29,3.14-1.77,4.31-5.46,4.31H7c-4.07,0-5.51-1.44-5.51-5.51V7.01C1.49,2.94,2.93,1.5,7,1.5h.13c3.71,0,5.19,1.19,5.46,4.39a.758.758,0,0,0,1.51-.13C13.76,1.78,11.61,0,7.14,0H7.01C2.1,0,0,2.1,0,7.01v6.52C0,18.44,2.1,20.54,7.01,20.54Z" transform="translate(1.75 1.73)" fill="#f80c40"/>
    <path id="Vector-2" data-name="Vector" d="M.75,1.5H12.13a.755.755,0,0,0,.75-.75A.755.755,0,0,0,12.13,0H.75A.755.755,0,0,0,0,.75.755.755,0,0,0,.75,1.5Z" transform="translate(8.25 11.25)" fill="#f80c40"/>
    <path id="Vector-3" data-name="Vector" d="M.748,8.2a.742.742,0,0,0,.53-.22l3.35-3.35a.754.754,0,0,0,0-1.06L1.278.218a.75.75,0,0,0-1.06,1.06L3.038,4.1.218,6.918a.754.754,0,0,0,0,1.06A.725.725,0,0,0,.748,8.2Z" transform="translate(17.402 7.902)" fill="#f80c40"/>
    <path id="Vector-4" data-name="Vector" d="M24,0H0V24H24Z" fill="none" opacity="0"/>
  </g>
</svg>
