<svg id="Github" xmlns="http://www.w3.org/2000/svg" width="60" height="59" viewBox="0 0 60 59">
  <path id="Fill_4" data-name="Fill 4" d="M30,0a30.284,30.284,0,0,0-9.484,58.948c1.5.28,2.05-.656,2.05-1.455,0-.721-.028-3.1-.041-5.631-8.346,1.83-10.107-3.569-10.107-3.569-1.365-3.5-3.331-4.426-3.331-4.426-2.722-1.877.205-1.839.205-1.839,3.013.213,4.6,3.117,4.6,3.117,2.676,4.624,7.018,3.287,8.73,2.514a6.461,6.461,0,0,1,1.9-4.045c-6.663-.765-13.668-3.358-13.668-14.948a11.759,11.759,0,0,1,3.091-8.119,10.951,10.951,0,0,1,.291-8s2.519-.813,8.252,3.1a28.233,28.233,0,0,1,15.024,0c5.726-3.913,8.242-3.1,8.242-3.1a10.937,10.937,0,0,1,.294,8,11.736,11.736,0,0,1,3.088,8.119c0,11.617-7.018,14.175-13.7,14.924,1.076.939,2.035,2.779,2.035,5.6,0,4.047-.035,7.3-.035,8.3,0,.8.54,1.748,2.061,1.451A30.285,30.285,0,0,0,30,0" fill="#030303"/>
  <path id="Fill_5" data-name="Fill 5" d="M.8.508C.736.657.5.7.289.6S-.05.3.02.149s.3-.2.516-.093S.877.359.8.508" transform="translate(10.649 42.713)" fill="#030303"/>
  <path id="Fill_6" data-name="Fill 6" d="M.787.83C.644.963.365.9.176.692A.458.458,0,0,1,.088.07C.235-.063.506,0,.7.208S.937.7.787.83" transform="translate(11.877 43.743)" fill="#030303"/>
  <path id="Fill_7" data-name="Fill 7" d="M.806,1.024C.623,1.152.323,1.032.137.766S-.046.18.141.052.623.039.81.3s.183.59,0,.721" transform="translate(13.039 45.274)" fill="#030303"/>
  <path id="Fill_8" data-name="Fill 8" d="M1.027.988c-.164.181-.514.132-.77-.115A.576.576,0,0,1,.088.109c.166-.182.518-.13.776.115s.339.586.164.765" transform="translate(14.435 46.976)" fill="#030303"/>
  <path id="Fill_9" data-name="Fill 9" d="M1.253.654C1.18.889.843,1,.5.9S-.056.518.012.281.421-.066.763.041s.56.375.49.613" transform="translate(16.441 48.278)" fill="#030303"/>
  <path id="Fill_10" data-name="Fill 10" d="M1.287.437C1.3.684,1.008.889.652.893S0,.7,0,.458.281.006.639,0s.648.191.648.437" transform="translate(18.857 48.674)" fill="#030303"/>
  <path id="Fill_11" data-name="Fill 11" d="M1.277.342c.043.241-.2.488-.558.554S.049.812,0,.573.214.078.561.014s.671.083.716.328" transform="translate(21.148 48.381)" fill="#030303"/>
</svg>
