<?xml version="1.0" encoding="utf-8"?>
<svg width="24px" height="24px" viewBox="0 0 24 24" version="1.1" xmlns:xlink="http://www.w3.org/1999/xlink" xmlns="http://www.w3.org/2000/svg">
  <g id="vuesaxtwotoneclock" fill-opacity="1">
    <path d="M24 0L24 0L24 24L0 24L0 0L24 0Z" id="vuesaxtwotoneclock" fill="none" stroke="none" />
    <g id="vuesaxtwotoneclock">
      <g id="clock">
        <path d="M12 9.66016L12 12.4502L13.4 13.8502" id="Vector" fill="none" stroke="#E6AC7D" stroke-opacity="0.4" stroke-width="1.5" stroke-linecap="round" stroke-linejoin="round" />
        <path d="M12 5.5C15.59 5.5 18.5 8.41 18.5 12C18.5 14.08 17.52 15.94 16 17.13L15.99 17.13C14.89 17.99 13.51 18.5 12 18.5C10.51 18.5 9.14 18 8.04 17.15L8.03 17.15C6.49 15.96 5.5 14.1 5.5 12C5.5 8.41 8.41 5.5 12 5.5Z" id="Vector" fill="none" stroke="#E6AC7D" stroke-width="1.5" stroke-linecap="round" stroke-linejoin="round" />
        <path d="M8.04027 17.1499C9.14027 17.9999 10.5103 18.4999 12.0003 18.4999C13.5103 18.4999 14.8903 17.9899 15.9903 17.1299L16.0003 17.1299L15.4903 19.5999C15.0003 21.4999 13.9003 21.9999 12.5503 21.9999L11.4603 21.9999C10.1103 21.9999 9.00027 21.4999 8.52027 19.5899L8.03027 17.1499L8.04027 17.1499Z" id="Vector" fill="none" stroke="#E6AC7D" stroke-opacity="0.4" stroke-width="1.5" stroke-linecap="round" stroke-linejoin="round" />
        <path d="M8.04027 6.85C9.14027 6 10.5103 5.5 12.0003 5.5C13.5103 5.5 14.8903 6.01 15.9903 6.87L16.0003 6.87L15.4903 4.4C15.0003 2.5 13.9003 2 12.5503 2L11.4603 2C10.1103 2 9.00027 2.5 8.52027 4.41L8.03027 6.85L8.04027 6.85Z" id="Vector" fill="none" stroke="#E6AC7D" stroke-opacity="0.4" stroke-width="1.5" stroke-linecap="round" stroke-linejoin="round" />
        <path d="M24 0L24 24L0 24L0 0L24 0Z" id="Vector" fill="none" fill-rule="evenodd" stroke="none" />
      </g>
    </g>
  </g>
</svg>