<?xml version="1.0" encoding="utf-8"?>
<svg width="24px" height="24px" viewBox="0 0 24 24" version="1.1" xmlns:xlink="http://www.w3.org/1999/xlink" xmlns="http://www.w3.org/2000/svg">
  <g id="vuesaxbrokenicon-(icx)" fill-opacity="1">
    <path d="M24 0L24 0L24 24L0 24L0 0L24 0Z" id="vuesaxbrokenicon-(icx)" fill="none" stroke="none" />
    <g id="vuesaxbrokenicon-(icx)">
      <g id="icon-(icx)">
        <path d="M24 0L24 24L0 24L0 0L24 0Z" id="BG-174" fill="none" fill-rule="evenodd" stroke="none" />
        <path d="M20.1992 3.80005L20.2992 3.80005" id="Vector" fill="none" stroke="#E6AC7D" stroke-opacity="0.4" stroke-width="3" stroke-linecap="round" stroke-linejoin="round" />
        <path d="M3.69922 20.2L3.79922 20.2" id="Vector" fill="none" stroke="#E6AC7D" stroke-opacity="0.4" stroke-width="3" stroke-linecap="round" stroke-linejoin="round" />
        <path d="M15.6 6C14.55 5.37 13.32 5 12 5C8.13 5 5 8.13 5 12C5 13.34 5.38 14.59 6.03 15.65" id="Vector" fill="none" stroke="#E6AC7D" stroke-width="1.5" stroke-linecap="round" stroke-linejoin="round" />
        <path d="M17.9707 8.3501C18.6207 9.4101 19.0007 10.6601 19.0007 12.0001C19.0007 13.2401 18.6807 14.4001 18.1107 15.4101" id="Vector" fill="none" stroke="#E6AC7D" stroke-width="1.5" stroke-linecap="round" stroke-linejoin="round" />
        <path d="M8.33984 17.97C9.40984 18.62 10.6598 19 11.9998 19C13.0498 19 14.0499 18.77 14.9499 18.35" id="Vector" fill="none" stroke="#E6AC7D" stroke-width="1.5" stroke-linecap="round" stroke-linejoin="round" />
        <path d="M24 0L24 24L0 24L0 0L24 0Z" id="Vector" fill="none" fill-rule="evenodd" stroke="none" />
      </g>
    </g>
  </g>
</svg>