<?xml version="1.0" encoding="utf-8"?>
<svg width="24px" height="24px" viewBox="0 0 24 24" version="1.1" xmlns:xlink="http://www.w3.org/1999/xlink" xmlns="http://www.w3.org/2000/svg">
  <g id="vuesaxbrokenpolyswarm-(nct)" fill-opacity="1">
    <path d="M24 0L24 0L24 24L0 24L0 0L24 0Z" id="vuesaxbrokenpolyswarm-(nct)" fill="none" stroke="none" />
    <g id="vuesaxbrokenpolyswarm-(nct)">
      <g id="polyswarm-(nct)">
        <path d="M24 0L24 24L0 24L0 0L24 0Z" id="BG-162" fill="none" fill-rule="evenodd" stroke="none" />
        <path d="M19.72 14.8999C18.44 16.3399 16.57 17.2499 14.5 17.2499L3.5 17.2499" id="Vector" fill="none" stroke="#E6AC7D" stroke-width="1.5" stroke-linecap="round" stroke-linejoin="round" />
        <path d="M9.5 3.25L14.5 3.25C18.35 3.25 21.5 6.4 21.5 10.25" id="Vector" fill="none" stroke="#E6AC7D" stroke-width="1.5" stroke-linecap="round" stroke-linejoin="round" />
        <path d="M3.16992 6.75L13.8099 6.75C15.8399 6.75 17.4999 8.41 17.4999 10.44C17.4999 12.47 15.8399 14.13 13.8099 14.13L7.99994 14.13" id="Vector" fill="none" stroke="#E6AC7D" stroke-width="1.5" stroke-linecap="round" stroke-linejoin="round" />
        <path d="M8.5 10.75L5.5 10.75" id="Vector" fill="none" fill-rule="evenodd" stroke="#E6AC7D" stroke-width="1.5" stroke-linecap="round" stroke-linejoin="round" />
        <path d="M6.5 20.75L2.5 20.75" id="Vector" fill="none" fill-rule="evenodd" stroke="#E6AC7D" stroke-width="1.5" stroke-linecap="round" stroke-linejoin="round" />
        <path d="M24 0L24 24L0 24L0 0L24 0Z" id="Vector" fill="none" fill-rule="evenodd" stroke="none" />
      </g>
    </g>
  </g>
</svg>