<?xml version="1.0" encoding="utf-8"?>
<svg width="24px" height="24px" viewBox="0 0 24 24" version="1.1" xmlns:xlink="http://www.w3.org/1999/xlink" xmlns="http://www.w3.org/2000/svg">
  <g id="vuesaxtwotoneshopping-cart" fill-opacity="1">
    <path d="M24 0L24 0L24 24L0 24L0 0L24 0Z" id="vuesaxtwotoneshopping-cart" fill="none" stroke="none" />
    <g id="vuesaxtwotoneshopping-cart">
      <g id="shopping-cart">
        <path d="M2 2L3.74001 2C4.82001 2 5.67 2.93 5.58 4L4.75 13.96C4.61 15.59 5.89999 16.99 7.53999 16.99L18.19 16.99C19.63 16.99 20.89 15.81 21 14.38L21.54 6.88C21.66 5.22001 20.4 3.87 18.73 3.87L5.82001 3.87" id="Vector" fill="none" stroke="#F5F5F5" stroke-width="1.5" stroke-linecap="round" stroke-linejoin="round" />
        <path d="M16.25 22C15.5596 22 15 21.4404 15 20.75C15 20.0596 15.5596 19.5 16.25 19.5C16.9404 19.5 17.5 20.0596 17.5 20.75C17.5 21.4404 16.9404 22 16.25 22Z" id="Vector" fill="none" fill-rule="evenodd" stroke="#F5F5F5" stroke-opacity="0.4" stroke-width="1.5" stroke-linecap="round" stroke-linejoin="round" />
        <path d="M8.25 22C7.55964 22 7 21.4404 7 20.75C7 20.0596 7.55964 19.5 8.25 19.5C8.94036 19.5 9.5 20.0596 9.5 20.75C9.5 21.4404 8.94036 22 8.25 22Z" id="Vector" fill="none" fill-rule="evenodd" stroke="#F5F5F5" stroke-opacity="0.4" stroke-width="1.5" stroke-linecap="round" stroke-linejoin="round" />
        <path d="M9 8L21 8" id="Vector" fill="none" fill-rule="evenodd" stroke="#F5F5F5" stroke-opacity="0.4" stroke-width="1.5" stroke-linecap="round" stroke-linejoin="round" />
        <path d="M24 0L24 24L0 24L0 0L24 0Z" id="Vector" fill="none" fill-rule="evenodd" stroke="none" />
      </g>
    </g>
  </g>
</svg>