<?xml version="1.0" encoding="utf-8"?>
<svg width="24px" height="24px" viewBox="0 0 24 24" version="1.1" xmlns:xlink="http://www.w3.org/1999/xlink" xmlns="http://www.w3.org/2000/svg">
  <g id="vuesaxtwotonereserve" fill-opacity="1">
    <path d="M24 0L24 0L24 24L0 24L0 0L24 0Z" id="vuesaxtwotonereserve" fill="none" stroke="none" />
    <g id="vuesaxtwotonereserve">
      <g id="reserve">
        <path d="M4.9707 22C1.9707 22 1.9707 20.65 1.9707 19L1.9707 18C1.9707 17.45 2.4207 17 2.9707 17L20.9707 17C21.5207 17 21.9707 17.45 21.9707 18L21.9707 19C21.9707 20.65 21.9707 22 18.9707 22L4.9707 22Z" id="Vector" fill="none" stroke="#F5F5F5" stroke-width="1.5" stroke-linecap="round" stroke-linejoin="round" />
        <path d="M20.7195 17L3.26953 17L3.26953 13C3.26953 9.16 5.97953 5.95 9.58953 5.18C10.1295 5.06 10.6895 5 11.2695 5L12.7195 5C13.2995 5 13.8695 5.06 14.4095 5.18C18.0195 5.96 20.7195 9.16 20.7195 13L20.7195 17Z" id="Vector" fill="none" stroke="#F5F5F5" stroke-width="1.5" stroke-linecap="round" stroke-linejoin="round" />
        <path d="M24 0L24 24L0 24L0 0L24 0Z" id="Vector" fill="none" fill-rule="evenodd" stroke="none" />
        <path d="M14.41 5.18C13.87 5.06 13.3 5 12.72 5L11.27 5C10.69 5 10.13 5.06 9.59 5.18C9.53 4.96 9.5 4.74 9.5 4.5C9.5 3.12 10.62 2 12 2C13.38 2 14.5 3.12 14.5 4.5C14.5 4.74 14.47 4.96 14.41 5.18Z" id="Vector" fill="none" stroke="#F5F5F5" stroke-opacity="0.34" stroke-width="1.5" stroke-linecap="round" stroke-linejoin="round" />
        <path d="M15 11L9 11" id="Vector" fill="none" fill-rule="evenodd" stroke="#F5F5F5" stroke-opacity="0.34" stroke-width="1.5" stroke-linecap="round" stroke-linejoin="round" />
      </g>
    </g>
  </g>
</svg>