<svg xmlns="http://www.w3.org/2000/svg" width="24" height="21.362" viewBox="0 0 24 21.362">
  <g id="Swift" transform="translate(-380.751 -2002)">
    <path id="swift-svgrepo-com" d="M21.984,16.348c.056-.112.056-.224.112-.336,1.346-5.272-1.851-11.44-7.347-14.693a12.89,12.89,0,0,1,2.524,10.6,5.515,5.515,0,0,1-.28.9,5.173,5.173,0,0,1-.45-.28A68.577,68.577,0,0,1,5.273,3.282a67.615,67.615,0,0,0,6.841,8.58,74.475,74.475,0,0,1-9.758-7.4A12.939,12.939,0,0,0,3.7,6.31a57.594,57.594,0,0,0,9.983,10.43c-2.86,1.74-6.842,1.851-10.88,0A16.109,16.109,0,0,1,0,15.058,16.563,16.563,0,0,0,7.46,21.4a11.829,11.829,0,0,0,10.318,0h.057a1.171,1.171,0,0,0,.336-.224c1.346-.673,3.982-1.4,5.44,1.4.392.785,1.121-2.86-1.626-6.225Z" transform="translate(380.75 2000.681)" fill="#1f295a"/>
    <g id="Ellipse_4" data-name="Ellipse 4" transform="translate(395.75 2014)" fill="#58e1f5" stroke="#eef0fb" stroke-width="1">
      <circle cx="2.5" cy="2.5" r="2.5" stroke="none"/>
      <circle cx="2.5" cy="2.5" r="2" fill="none"/>
    </g>
  </g>
</svg>
