<?xml version="1.0" encoding="utf-8"?>
<svg width="24px" height="24px" viewBox="0 0 24 24" version="1.1" xmlns:xlink="http://www.w3.org/1999/xlink" xmlns="http://www.w3.org/2000/svg">
  <g id="vuesaxbrokenglobal" fill-opacity="1">
    <path d="M24 0L24 0L24 24L0 24L0 0L24 0Z" id="vuesaxbrokenglobal" fill="none" stroke="none" />
    <g id="vuesaxbrokenglobal">
      <g id="global">
        <path d="M12 22C6.47715 22 2 17.5228 2 12C2 6.47715 6.47715 2 12 2C17.5228 2 22 6.47715 22 12C22 17.5228 17.5228 22 12 22Z" id="Vector" fill="none" fill-rule="evenodd" stroke="#F5F5F5" stroke-width="1.5" stroke-linecap="round" stroke-linejoin="round" />
        <path d="M7.53906 12C7.53906 15.04 8.02906 18.08 8.99906 21L7.99906 21" id="Vector" fill="none" stroke="#F5F5F5" stroke-width="1.5" stroke-linecap="round" stroke-linejoin="round" />
        <path d="M8.00039 3L9.00039 3C8.51039 4.46 8.15039 5.95 7.90039 7.46" id="Vector" fill="none" stroke="#F5F5F5" stroke-width="1.5" stroke-linecap="round" stroke-linejoin="round" />
        <path d="M16.13 16.3601C15.88 17.9201 15.51 19.4801 15 21.0001" id="Vector" fill="none" stroke="#F5F5F5" stroke-width="1.5" stroke-linecap="round" stroke-linejoin="round" />
        <path d="M15 3C15.97 5.92 16.46 8.96 16.46 12" id="Vector" fill="none" stroke="#F5F5F5" stroke-width="1.5" stroke-linecap="round" stroke-linejoin="round" />
        <path d="M3 16L3 15C8.84 16.95 15.16 16.95 21 15L21 16" id="Vector" fill="none" stroke="#F5F5F5" stroke-width="1.5" stroke-linecap="round" stroke-linejoin="round" />
        <path d="M3 9.0001C8.84 7.0501 15.16 7.0501 21 9.0001" id="Vector" fill="none" stroke="#F5F5F5" stroke-width="1.5" stroke-linecap="round" stroke-linejoin="round" />
        <path d="M24 0L24 24L0 24L0 0L24 0Z" id="Vector" fill="none" fill-rule="evenodd" stroke="none" />
      </g>
    </g>
  </g>
</svg>