<?xml version="1.0" encoding="utf-8"?>
<svg width="24px" height="24px" viewBox="0 0 24 24" version="1.1" xmlns:xlink="http://www.w3.org/1999/xlink" xmlns="http://www.w3.org/2000/svg">
  <g id="vuesaxbrokentrade" fill-opacity="1">
    <path d="M24 0L24 0L24 24L0 24L0 0L24 0Z" id="vuesaxbrokentrade" fill="none" stroke="none" />
    <g id="vuesaxbrokentrade">
      <g id="trade">
        <path d="M15.5 15C15.33 15 15.15 14.99 14.98 14.98C14.73 11.81 12.19 9.26999 9.01999 9.01999C9.00999 8.84999 9 8.67 9 8.5C9 4.91 11.91 2 15.5 2C19.09 2 22 4.91 22 8.5C22 12.09 19.09 15 15.5 15Z" id="Vector" fill="none" stroke="#E6AC7D" stroke-width="1.5" stroke-linecap="round" stroke-linejoin="round" />
        <path d="M4.67999 20.76C3.05999 19.58 2 17.66 2 15.5C2 11.91 4.91 9 8.5 9C8.67 9 8.84999 9.00999 9.01999 9.01999C12.19 9.26999 14.73 11.81 14.98 14.98C14.99 15.15 15 15.33 15 15.5C15 19.09 12.09 22 8.5 22" id="Vector" fill="none" stroke="#E6AC7D" stroke-width="1.5" stroke-linecap="round" stroke-linejoin="round" />
        <path d="M3 2C2.45 2 2 2.45 2 3L2 5.59C2 6.48 3.07999 6.92999 3.70999 6.29999L6.29999 3.70999C6.91999 3.07999 6.48 2 5.59 2L3 2Z" id="Vector" fill="none" stroke="#E6AC7D" stroke-width="1.5" stroke-linecap="round" stroke-linejoin="round" />
        <path d="M20.9997 22C21.5497 22 21.9997 21.55 21.9997 21L21.9997 18.41C21.9997 17.52 20.9197 17.07 20.2897 17.7L17.6997 20.29C17.0797 20.92 17.5197 22 18.4097 22L20.9997 22Z" id="Vector" fill="none" stroke="#E6AC7D" stroke-width="1.5" stroke-linecap="round" stroke-linejoin="round" />
        <path d="M24 0L24 24L0 24L0 0L24 0Z" id="Vector" fill="none" fill-rule="evenodd" stroke="none" />
      </g>
    </g>
  </g>
</svg>